ISO-10303-21;
HEADER;
/* Generated by software containing ST-Developer
 * from STEP Tools, Inc. (www.steptools.com) 
 */
/* OPTION: using custom schema-name function */

FILE_DESCRIPTION(
/* description */ (''),
/* implementation_level */ '2;1');

FILE_NAME(
/* name */ 'STEA25B',
/* time_stamp */ '2026-04-11T11:52:20+08:00',
/* author */ (''),
/* organization */ (''),
/* preprocessor_version */ 'ST-DEVELOPER v16.5',
/* originating_system */ '',
/* authorisation */ '');

FILE_SCHEMA (('AUTOMOTIVE_DESIGN'));
ENDSEC;

DATA;
#10=SHAPE_REPRESENTATION_RELATIONSHIP('','',#207,#13);
#11=PRESENTATION_LAYER_ASSIGNMENT('\X2\56FE5C42\X0\ 01','',(#12));
#12=MANIFOLD_SOLID_BREP('brep_14',#14);
#13=ADVANCED_BREP_SHAPE_REPRESENTATION('brep_rep_0',(#12,#218),#206);
#14=CLOSED_SHELL('',(#16,#17,#18,#19,#20,#21,#22,#23,#24,#25,#26,#27,#28));
#15=FACE_BOUND('',#49,.T.);
#16=ADVANCED_FACE('',(#29),#183,.T.);
#17=ADVANCED_FACE('',(#30),#181,.T.);
#18=ADVANCED_FACE('',(#31),#184,.T.);
#19=ADVANCED_FACE('',(#32),#185,.T.);
#20=ADVANCED_FACE('',(#33),#178,.T.);
#21=ADVANCED_FACE('',(#34),#176,.T.);
#22=ADVANCED_FACE('',(#35,#15),#179,.T.);
#23=ADVANCED_FACE('',(#36),#180,.T.);
#24=ADVANCED_FACE('',(#37),#186,.T.);
#25=ADVANCED_FACE('',(#38),#182,.T.);
#26=ADVANCED_FACE('',(#39),#187,.T.);
#27=ADVANCED_FACE('',(#40),#188,.T.);
#28=ADVANCED_FACE('',(#41),#177,.T.);
#29=FACE_OUTER_BOUND('',#42,.T.);
#30=FACE_OUTER_BOUND('',#43,.T.);
#31=FACE_OUTER_BOUND('',#44,.T.);
#32=FACE_OUTER_BOUND('',#45,.T.);
#33=FACE_OUTER_BOUND('',#46,.T.);
#34=FACE_OUTER_BOUND('',#47,.T.);
#35=FACE_OUTER_BOUND('',#48,.T.);
#36=FACE_OUTER_BOUND('',#50,.T.);
#37=FACE_OUTER_BOUND('',#51,.T.);
#38=FACE_OUTER_BOUND('',#52,.T.);
#39=FACE_OUTER_BOUND('',#53,.T.);
#40=FACE_OUTER_BOUND('',#54,.T.);
#41=FACE_OUTER_BOUND('',#55,.T.);
#42=EDGE_LOOP('',(#56,#57,#58,#59));
#43=EDGE_LOOP('',(#60,#61,#62,#63,#64));
#44=EDGE_LOOP('',(#65,#66,#67,#68,#69));
#45=EDGE_LOOP('',(#70,#71,#72,#73));
#46=EDGE_LOOP('',(#74,#75));
#47=EDGE_LOOP('',(#76,#77,#78,#79));
#48=EDGE_LOOP('',(#80,#81));
#49=EDGE_LOOP('',(#82,#83));
#50=EDGE_LOOP('',(#84,#85));
#51=EDGE_LOOP('',(#86,#87,#88,#89));
#52=EDGE_LOOP('',(#90,#91,#92,#93,#94));
#53=EDGE_LOOP('',(#95,#96,#97,#98,#99));
#54=EDGE_LOOP('',(#100,#101,#102,#103));
#55=EDGE_LOOP('',(#104,#105,#106,#107));
#56=ORIENTED_EDGE('',*,*,#108,.T.);
#57=ORIENTED_EDGE('',*,*,#109,.T.);
#58=ORIENTED_EDGE('',*,*,#110,.T.);
#59=ORIENTED_EDGE('',*,*,#125,.T.);
#60=ORIENTED_EDGE('',*,*,#111,.T.);
#61=ORIENTED_EDGE('',*,*,#127,.T.);
#62=ORIENTED_EDGE('',*,*,#112,.T.);
#63=ORIENTED_EDGE('',*,*,#113,.T.);
#64=ORIENTED_EDGE('',*,*,#109,.F.);
#65=ORIENTED_EDGE('',*,*,#114,.T.);
#66=ORIENTED_EDGE('',*,*,#115,.T.);
#67=ORIENTED_EDGE('',*,*,#116,.T.);
#68=ORIENTED_EDGE('',*,*,#117,.T.);
#69=ORIENTED_EDGE('',*,*,#112,.F.);
#70=ORIENTED_EDGE('',*,*,#131,.T.);
#71=ORIENTED_EDGE('',*,*,#118,.T.);
#72=ORIENTED_EDGE('',*,*,#130,.T.);
#73=ORIENTED_EDGE('',*,*,#123,.T.);
#74=ORIENTED_EDGE('',*,*,#120,.T.);
#75=ORIENTED_EDGE('',*,*,#133,.T.);
#76=ORIENTED_EDGE('',*,*,#118,.F.);
#77=ORIENTED_EDGE('',*,*,#119,.T.);
#78=ORIENTED_EDGE('',*,*,#120,.F.);
#79=ORIENTED_EDGE('',*,*,#121,.T.);
#80=ORIENTED_EDGE('',*,*,#122,.T.);
#81=ORIENTED_EDGE('',*,*,#123,.F.);
#82=ORIENTED_EDGE('',*,*,#115,.F.);
#83=ORIENTED_EDGE('',*,*,#129,.T.);
#84=ORIENTED_EDGE('',*,*,#124,.T.);
#85=ORIENTED_EDGE('',*,*,#125,.F.);
#86=ORIENTED_EDGE('',*,*,#124,.F.);
#87=ORIENTED_EDGE('',*,*,#110,.F.);
#88=ORIENTED_EDGE('',*,*,#126,.T.);
#89=ORIENTED_EDGE('',*,*,#108,.F.);
#90=ORIENTED_EDGE('',*,*,#126,.F.);
#91=ORIENTED_EDGE('',*,*,#113,.F.);
#92=ORIENTED_EDGE('',*,*,#117,.F.);
#93=ORIENTED_EDGE('',*,*,#128,.T.);
#94=ORIENTED_EDGE('',*,*,#111,.F.);
#95=ORIENTED_EDGE('',*,*,#127,.F.);
#96=ORIENTED_EDGE('',*,*,#128,.F.);
#97=ORIENTED_EDGE('',*,*,#116,.F.);
#98=ORIENTED_EDGE('',*,*,#129,.F.);
#99=ORIENTED_EDGE('',*,*,#114,.F.);
#100=ORIENTED_EDGE('',*,*,#122,.F.);
#101=ORIENTED_EDGE('',*,*,#130,.F.);
#102=ORIENTED_EDGE('',*,*,#132,.T.);
#103=ORIENTED_EDGE('',*,*,#131,.F.);
#104=ORIENTED_EDGE('',*,*,#132,.F.);
#105=ORIENTED_EDGE('',*,*,#121,.F.);
#106=ORIENTED_EDGE('',*,*,#133,.F.);
#107=ORIENTED_EDGE('',*,*,#119,.F.);
#108=EDGE_CURVE('',#160,#161,#142,.T.);
#109=EDGE_CURVE('',#161,#162,#143,.T.);
#110=EDGE_CURVE('',#162,#163,#134,.T.);
#111=EDGE_CURVE('',#161,#164,#144,.T.);
#112=EDGE_CURVE('',#165,#166,#145,.T.);
#113=EDGE_CURVE('',#166,#162,#135,.T.);
#114=EDGE_CURVE('',#165,#167,#146,.T.);
#115=EDGE_CURVE('',#167,#168,#147,.T.);
#116=EDGE_CURVE('',#168,#169,#148,.T.);
#117=EDGE_CURVE('',#169,#166,#149,.T.);
#118=EDGE_CURVE('',#171,#172,#136,.T.);
#119=EDGE_CURVE('',#171,#175,#137,.T.);
#120=EDGE_CURVE('',#174,#175,#138,.T.);
#121=EDGE_CURVE('',#174,#172,#139,.T.);
#122=EDGE_CURVE('',#173,#170,#150,.T.);
#123=EDGE_CURVE('',#173,#170,#151,.T.);
#124=EDGE_CURVE('',#163,#160,#152,.T.);
#125=EDGE_CURVE('',#163,#160,#153,.T.);
#126=EDGE_CURVE('',#162,#161,#154,.T.);
#127=EDGE_CURVE('',#164,#165,#155,.T.);
#128=EDGE_CURVE('',#169,#164,#156,.T.);
#129=EDGE_CURVE('',#167,#168,#157,.T.);
#130=EDGE_CURVE('',#172,#173,#158,.T.);
#131=EDGE_CURVE('',#170,#171,#159,.T.);
#132=EDGE_CURVE('',#172,#171,#140,.T.);
#133=EDGE_CURVE('',#175,#174,#141,.T.);
#134=B_SPLINE_CURVE_WITH_KNOTS('',1,(#361,#362),.UNSPECIFIED.,.F.,.F.,(2,
2),(0.,3.05955391447775),.UNSPECIFIED.);
#135=B_SPLINE_CURVE_WITH_KNOTS('',1,(#375,#376),.UNSPECIFIED.,.F.,.F.,(2,
2),(0.,9.58061920017019),.UNSPECIFIED.);
#136=B_SPLINE_CURVE_WITH_KNOTS('',3,(#402,#403,#404,#405,#406,#407,#408,
#409,#410,#411,#412,#413,#414,#415,#416,#417,#418,#419,#420,#421),
 .UNSPECIFIED.,.F.,.F.,(4,1,1,1,1,1,1,1,1,1,1,1,1,1,1,1,1,4),(-26.8606084550409,
-26.860607404838,-24.9916702330274,-23.4248315444448,-21.8003592891713,
-20.1454555536288,-18.4905518180858,-16.8660795628116,-15.2992408742291,
-13.4303037024194,-11.5613665306089,-9.99452784202597,-8.37005558675183,
-6.71515185120997,-5.06024811566712,-3.43577586039295,-1.86893717181042,
0.),.UNSPECIFIED.);
#137=B_SPLINE_CURVE_WITH_KNOTS('',1,(#422,#423),.UNSPECIFIED.,.F.,.F.,(2,
2),(0.,1.),.UNSPECIFIED.);
#138=B_SPLINE_CURVE_WITH_KNOTS('',3,(#424,#425,#426,#427,#428,#429,#430,
#431,#432,#433,#434,#435,#436,#437,#438,#439,#440,#441,#442),
 .UNSPECIFIED.,.F.,.F.,(4,1,1,1,1,1,1,1,1,1,1,1,1,1,1,1,4),(0.,1.8689372448826,
3.43577599472579,5.06024831351399,6.71515211376068,8.37005591400639,9.99452823279456,
11.5613669826381,13.4303042275208,15.2992414724027,16.8660802222459,18.4905525410341,
20.1454563412809,21.8003601415273,23.4248324603148,24.9916712101581,26.8606084550409),
 .UNSPECIFIED.);
#139=B_SPLINE_CURVE_WITH_KNOTS('',1,(#443,#444),.UNSPECIFIED.,.F.,.F.,(2,
2),(-1.,0.),.UNSPECIFIED.);
#140=B_SPLINE_CURVE_WITH_KNOTS('',3,(#499,#500,#501,#502,#503,#504,#505,
#506,#507,#508,#509,#510,#511,#512,#513,#514,#515,#516,#517),
 .UNSPECIFIED.,.F.,.F.,(4,1,1,1,1,1,1,1,1,1,1,1,1,1,1,1,4),(-53.7212169100818,
-51.8522795921269,-50.2854407810231,-48.6609683987214,-47.0060645337713,
-45.3511606688207,-43.7266882865185,-42.1598494754144,-40.2909121574598,
-38.421974839505,-36.8551360284008,-35.2306636460988,-33.5757597811491,
-31.9208559161984,-30.2963835338966,-28.7295447227923,-26.8606084550409),
 .UNSPECIFIED.);
#141=B_SPLINE_CURVE_WITH_KNOTS('',3,(#518,#519,#520,#521,#522,#523,#524,
#525,#526,#527,#528,#529,#530,#531,#532,#533,#534,#535,#536),
 .UNSPECIFIED.,.F.,.F.,(4,1,1,1,1,1,1,1,1,1,1,1,1,1,1,1,4),(26.8606084550409,
28.7295456999231,30.2963844497667,31.9208567685545,33.5757605688013,35.2306643690472,
36.8551366878351,38.4219754376787,40.2909126825613,42.1598499274437,43.7266886772871,
45.3511609960753,47.006064796322,48.6609685965683,50.285440915356,51.8522796651991,
53.7212169100818),.UNSPECIFIED.);
#142=(
BOUNDED_CURVE()
B_SPLINE_CURVE(1,(#354,#355),.UNSPECIFIED.,.F.,.F.)
B_SPLINE_CURVE_WITH_KNOTS((2,2),(0.,3.05955391433001),.UNSPECIFIED.)
CURVE()
GEOMETRIC_REPRESENTATION_ITEM()
RATIONAL_B_SPLINE_CURVE((1.,1.))
REPRESENTATION_ITEM('')
);
#143=(
BOUNDED_CURVE()
B_SPLINE_CURVE(2,(#356,#357,#358,#359,#360),.UNSPECIFIED.,.F.,.F.)
B_SPLINE_CURVE_WITH_KNOTS((3,2,3),(0.,11.9998279755325,23.999655951065),
 .UNSPECIFIED.)
CURVE()
GEOMETRIC_REPRESENTATION_ITEM()
RATIONAL_B_SPLINE_CURVE((1.,0.707106781186563,1.,0.707106781186563,1.))
REPRESENTATION_ITEM('')
);
#144=(
BOUNDED_CURVE()
B_SPLINE_CURVE(1,(#363,#364),.UNSPECIFIED.,.F.,.F.)
B_SPLINE_CURVE_WITH_KNOTS((2,2),(0.,9.58085463897959),.UNSPECIFIED.)
CURVE()
GEOMETRIC_REPRESENTATION_ITEM()
RATIONAL_B_SPLINE_CURVE((1.,1.))
REPRESENTATION_ITEM('')
);
#145=(
BOUNDED_CURVE()
B_SPLINE_CURVE(3,(#365,#366,#367,#368,#369,#370,#371,#372,#373,#374),
 .UNSPECIFIED.,.F.,.F.)
B_SPLINE_CURVE_WITH_KNOTS((4,3,3,4),(0.,3.68623350106993E-5,7.25169002763532,
14.5033430637408),.UNSPECIFIED.)
CURVE()
GEOMETRIC_REPRESENTATION_ITEM()
RATIONAL_B_SPLINE_CURVE((1.,0.999999999998682,0.999999999998682,1.,1.,1.,
1.,1.,1.,1.))
REPRESENTATION_ITEM('')
);
#146=(
BOUNDED_CURVE()
B_SPLINE_CURVE(1,(#377,#378),.UNSPECIFIED.,.F.,.F.)
B_SPLINE_CURVE_WITH_KNOTS((2,2),(0.,4.36483326038601),.UNSPECIFIED.)
CURVE()
GEOMETRIC_REPRESENTATION_ITEM()
RATIONAL_B_SPLINE_CURVE((1.,1.))
REPRESENTATION_ITEM('')
);
#147=(
BOUNDED_CURVE()
B_SPLINE_CURVE(2,(#379,#380,#381,#382,#383),.UNSPECIFIED.,.F.,.F.)
B_SPLINE_CURVE_WITH_KNOTS((3,2,3),(0.,17.9999999999996,35.9999999999992),
 .UNSPECIFIED.)
CURVE()
GEOMETRIC_REPRESENTATION_ITEM()
RATIONAL_B_SPLINE_CURVE((1.,0.707106781186561,1.,0.707106781186561,1.))
REPRESENTATION_ITEM('')
);
#148=(
BOUNDED_CURVE()
B_SPLINE_CURVE(1,(#384,#385),.UNSPECIFIED.,.F.,.F.)
B_SPLINE_CURVE_WITH_KNOTS((2,2),(0.,4.364607442422),.UNSPECIFIED.)
CURVE()
GEOMETRIC_REPRESENTATION_ITEM()
RATIONAL_B_SPLINE_CURVE((1.,1.))
REPRESENTATION_ITEM('')
);
#149=(
BOUNDED_CURVE()
B_SPLINE_CURVE(3,(#386,#387,#388,#389,#390,#391,#392,#393,#394,#395,#396,
#397,#398,#399,#400,#401),.UNSPECIFIED.,.F.,.F.)
B_SPLINE_CURVE_WITH_KNOTS((4,3,3,3,3,4),(0.,3.68623360054606E-5,7.2516901609403,
7.25174255090682,14.5033791087655,14.503416337031),.UNSPECIFIED.)
CURVE()
GEOMETRIC_REPRESENTATION_ITEM()
RATIONAL_B_SPLINE_CURVE((1.,0.999999434486434,0.999998868974506,0.999998303464216,
0.999998303464216,0.999998303464216,0.999998303464216,0.999998303464216,
0.999998303467039,0.999998303472687,0.999998303472687,0.999998303472687,
0.999998303472687,0.999998868980127,0.999999434489232,1.))
REPRESENTATION_ITEM('')
);
#150=(
BOUNDED_CURVE()
B_SPLINE_CURVE(2,(#445,#446,#447,#448,#449),.UNSPECIFIED.,.F.,.F.)
B_SPLINE_CURVE_WITH_KNOTS((3,2,3),(0.,19.1000610510812,38.2001221021625),
 .UNSPECIFIED.)
CURVE()
GEOMETRIC_REPRESENTATION_ITEM()
RATIONAL_B_SPLINE_CURVE((1.,0.707106781186556,1.,0.707106781186556,1.))
REPRESENTATION_ITEM('')
);
#151=(
BOUNDED_CURVE()
B_SPLINE_CURVE(2,(#450,#451,#452,#453,#454),.UNSPECIFIED.,.F.,.F.)
B_SPLINE_CURVE_WITH_KNOTS((3,2,3),(-38.2001221021625,-19.1000610510812,
0.),.UNSPECIFIED.)
CURVE()
GEOMETRIC_REPRESENTATION_ITEM()
RATIONAL_B_SPLINE_CURVE((1.,0.707106781186557,1.,0.707106781186557,1.))
REPRESENTATION_ITEM('')
);
#152=(
BOUNDED_CURVE()
B_SPLINE_CURVE(2,(#455,#456,#457,#458,#459),.UNSPECIFIED.,.F.,.F.)
B_SPLINE_CURVE_WITH_KNOTS((3,2,3),(0.,11.9998279756084,23.9996559511405),
 .UNSPECIFIED.)
CURVE()
GEOMETRIC_REPRESENTATION_ITEM()
RATIONAL_B_SPLINE_CURVE((1.,0.707106781186548,1.,0.707106781186548,1.))
REPRESENTATION_ITEM('')
);
#153=(
BOUNDED_CURVE()
B_SPLINE_CURVE(2,(#460,#461,#462,#463,#464),.UNSPECIFIED.,.F.,.F.)
B_SPLINE_CURVE_WITH_KNOTS((3,2,3),(-23.9996559511415,-11.9998279755326,
0.),.UNSPECIFIED.)
CURVE()
GEOMETRIC_REPRESENTATION_ITEM()
RATIONAL_B_SPLINE_CURVE((1.,0.707106781186548,1.,0.707106781186548,1.))
REPRESENTATION_ITEM('')
);
#154=(
BOUNDED_CURVE()
B_SPLINE_CURVE(2,(#465,#466,#467,#468,#469),.UNSPECIFIED.,.F.,.F.)
B_SPLINE_CURVE_WITH_KNOTS((3,2,3),(0.,11.9998279755328,23.9996559510655),
 .UNSPECIFIED.)
CURVE()
GEOMETRIC_REPRESENTATION_ITEM()
RATIONAL_B_SPLINE_CURVE((1.,0.707106781186554,1.,0.707106781186554,1.))
REPRESENTATION_ITEM('')
);
#155=(
BOUNDED_CURVE()
B_SPLINE_CURVE(3,(#470,#471,#472,#473,#474,#475,#476,#477,#478,#479),
 .UNSPECIFIED.,.F.,.F.)
B_SPLINE_CURVE_WITH_KNOTS((4,3,3,4),(-14.5033418519098,-7.25168894781881,
-7.25163655785263,0.),.UNSPECIFIED.)
CURVE()
GEOMETRIC_REPRESENTATION_ITEM()
RATIONAL_B_SPLINE_CURVE((1.,1.00000056550974,1.00000113101979,1.00000169653017,
1.00000169653017,1.00000169653299,1.00000169653864,1.00000113102544,1.00000056551256,
1.))
REPRESENTATION_ITEM('')
);
#156=(
BOUNDED_CURVE()
B_SPLINE_CURVE(3,(#480,#481,#482,#483,#484,#485,#486,#487,#488,#489),
 .UNSPECIFIED.,.F.,.F.)
B_SPLINE_CURVE_WITH_KNOTS((4,3,3,4),(-14.5034233088166,-7.25173013588655,
-3.72282658021998E-5,0.),.UNSPECIFIED.)
CURVE()
GEOMETRIC_REPRESENTATION_ITEM()
RATIONAL_B_SPLINE_CURVE((1.,1.00000113663643,1.00000227327415,1.00000340991317,
1.00000340991317,1.00000340991317,1.00000340991317,1.00000227327281,1.00000113663509,
1.))
REPRESENTATION_ITEM('')
);
#157=(
BOUNDED_CURVE()
B_SPLINE_CURVE(2,(#490,#491,#492,#493,#494),.UNSPECIFIED.,.F.,.F.)
B_SPLINE_CURVE_WITH_KNOTS((3,2,3),(-36.0000000000006,-18.0000000000003,
0.),.UNSPECIFIED.)
CURVE()
GEOMETRIC_REPRESENTATION_ITEM()
RATIONAL_B_SPLINE_CURVE((1.,0.707106781186548,1.,0.707106781186548,1.))
REPRESENTATION_ITEM('')
);
#158=(
BOUNDED_CURVE()
B_SPLINE_CURVE(1,(#495,#496),.UNSPECIFIED.,.F.,.F.)
B_SPLINE_CURVE_WITH_KNOTS((2,2),(-22.4301936231051,0.),.UNSPECIFIED.)
CURVE()
GEOMETRIC_REPRESENTATION_ITEM()
RATIONAL_B_SPLINE_CURVE((1.,1.))
REPRESENTATION_ITEM('')
);
#159=(
BOUNDED_CURVE()
B_SPLINE_CURVE(1,(#497,#498),.UNSPECIFIED.,.F.,.F.)
B_SPLINE_CURVE_WITH_KNOTS((2,2),(-22.4301936231606,0.),.UNSPECIFIED.)
CURVE()
GEOMETRIC_REPRESENTATION_ITEM()
RATIONAL_B_SPLINE_CURVE((1.,1.))
REPRESENTATION_ITEM('')
);
#160=VERTEX_POINT('',#338);
#161=VERTEX_POINT('',#339);
#162=VERTEX_POINT('',#340);
#163=VERTEX_POINT('',#341);
#164=VERTEX_POINT('',#342);
#165=VERTEX_POINT('',#343);
#166=VERTEX_POINT('',#344);
#167=VERTEX_POINT('',#345);
#168=VERTEX_POINT('',#346);
#169=VERTEX_POINT('',#347);
#170=VERTEX_POINT('',#348);
#171=VERTEX_POINT('',#349);
#172=VERTEX_POINT('',#350);
#173=VERTEX_POINT('',#351);
#174=VERTEX_POINT('',#352);
#175=VERTEX_POINT('',#353);
#176=B_SPLINE_SURFACE_WITH_KNOTS('',3,1,((#247,#248),(#249,#250),(#251,
#252),(#253,#254),(#255,#256),(#257,#258),(#259,#260),(#261,#262),(#263,
#264),(#265,#266),(#267,#268),(#269,#270),(#271,#272),(#273,#274),(#275,
#276),(#277,#278),(#279,#280),(#281,#282),(#283,#284)),.UNSPECIFIED.,.F.,
 .F.,.F.,(4,1,1,1,1,1,1,1,1,1,1,1,1,1,1,1,4),(2,2),(0.,1.8689372448826,
3.43577599472579,5.06024831351399,6.71515211376068,8.37005591400639,9.99452823279456,
11.5613669826381,13.4303042275208,15.2992414724027,16.8660802222459,18.4905525410341,
20.1454563412809,21.8003601415273,23.4248324603148,24.9916712101581,26.8606084550409),
(0.,1.),.UNSPECIFIED.);
#177=B_SPLINE_SURFACE_WITH_KNOTS('',3,1,((#300,#301),(#302,#303),(#304,
#305),(#306,#307),(#308,#309),(#310,#311),(#312,#313),(#314,#315),(#316,
#317),(#318,#319),(#320,#321),(#322,#323),(#324,#325),(#326,#327),(#328,
#329),(#330,#331),(#332,#333),(#334,#335),(#336,#337)),.UNSPECIFIED.,.F.,
 .F.,.F.,(4,1,1,1,1,1,1,1,1,1,1,1,1,1,1,1,4),(2,2),(26.8606084550409,28.7295456999231,
30.2963844497667,31.9208567685545,33.5757605688013,35.2306643690472,36.8551366878351,
38.4219754376787,40.2909126825613,42.1598499274437,43.7266886772871,45.3511609960753,
47.006064796322,48.6609685965683,50.285440915356,51.8522796651991,53.7212169100818),
(0.,1.),.UNSPECIFIED.);
#178=PLANE('',#212);
#179=PLANE('',#213);
#180=PLANE('',#214);
#181=(
BOUNDED_SURFACE()
B_SPLINE_SURFACE(2,1,((#234,#235),(#236,#237),(#238,#239),(#240,#241),(#242,
#243)),.UNSPECIFIED.,.F.,.F.,.F.)
B_SPLINE_SURFACE_WITH_KNOTS((3,2,3),(2,2),(-4.72732963885392E-13,18.7596297571464,
37.5192595142936),(5.00141786973263,19.1791648587444),.UNSPECIFIED.)
GEOMETRIC_REPRESENTATION_ITEM()
RATIONAL_B_SPLINE_SURFACE(((1.00000000000001,1.00000000000001),(0.707106781186541,
0.707106781186541),(1.,1.),(0.707106781186535,0.707106781186535),(1.00000000000002,
1.00000000000002)))
REPRESENTATION_ITEM('')
SURFACE()
);
#182=(
BOUNDED_SURFACE()
B_SPLINE_SURFACE(2,1,((#288,#289),(#290,#291),(#292,#293),(#294,#295),(#296,
#297)),.UNSPECIFIED.,.F.,.F.,.F.)
B_SPLINE_SURFACE_WITH_KNOTS((3,2,3),(2,2),(37.5192595142929,56.2788892714393,
75.0385190285858),(5.00141786973268,19.1791648587444),.UNSPECIFIED.)
GEOMETRIC_REPRESENTATION_ITEM()
RATIONAL_B_SPLINE_SURFACE(((1.,1.),(0.707106781186548,0.707106781186548),
(1.,1.),(0.707106781186548,0.707106781186548),(1.,1.)))
REPRESENTATION_ITEM('')
SURFACE()
);
#183=CYLINDRICAL_SURFACE('',#209,5.9999139877664);
#184=CYLINDRICAL_SURFACE('',#210,8.99999999999997);
#185=CYLINDRICAL_SURFACE('',#211,9.55003052554082);
#186=CYLINDRICAL_SURFACE('',#215,5.99991398776643);
#187=CYLINDRICAL_SURFACE('',#216,8.99999999999997);
#188=CYLINDRICAL_SURFACE('',#217,9.55003052554079);
#189=SHAPE_DEFINITION_REPRESENTATION(#190,#207);
#190=PRODUCT_DEFINITION_SHAPE('Document','',#192);
#191=PRODUCT_DEFINITION_CONTEXT('3D Mechanical Parts',#196,'design');
#192=PRODUCT_DEFINITION('A','First version',#193,#191);
#193=PRODUCT_DEFINITION_FORMATION_WITH_SPECIFIED_SOURCE('A',
'First version',#198,.MADE.);
#194=PRODUCT_RELATED_PRODUCT_CATEGORY('tool','tool',(#198));
#195=APPLICATION_PROTOCOL_DEFINITION('Draft International Standard',
'automotive_design',1999,#196);
#196=APPLICATION_CONTEXT(
'data for automotive mechanical design processes');
#197=PRODUCT_CONTEXT('3D Mechanical Parts',#196,'mechanical');
#198=PRODUCT('Document','Document','',(#197));
#199=(
LENGTH_UNIT()
NAMED_UNIT(*)
SI_UNIT(.MILLI.,.METRE.)
);
#200=(
NAMED_UNIT(*)
PLANE_ANGLE_UNIT()
SI_UNIT($,.RADIAN.)
);
#201=DIMENSIONAL_EXPONENTS(0.,0.,0.,0.,0.,0.,0.);
#202=PLANE_ANGLE_MEASURE_WITH_UNIT(PLANE_ANGLE_MEASURE(0.01745329252),#200);
#203=(
CONVERSION_BASED_UNIT('DEGREES',#202)
NAMED_UNIT(#201)
PLANE_ANGLE_UNIT()
);
#204=(
NAMED_UNIT(*)
SI_UNIT($,.STERADIAN.)
SOLID_ANGLE_UNIT()
);
#205=UNCERTAINTY_MEASURE_WITH_UNIT(LENGTH_MEASURE(0.01),#199,
'DISTANCE_ACCURACY_VALUE',
'Maximum model space distance between geometric entities at asserted c
onnectivities');
#206=(
GEOMETRIC_REPRESENTATION_CONTEXT(3)
GLOBAL_UNCERTAINTY_ASSIGNED_CONTEXT((#205))
GLOBAL_UNIT_ASSIGNED_CONTEXT((#204,#203,#199))
REPRESENTATION_CONTEXT('ID1','3D')
);
#207=SHAPE_REPRESENTATION('Document',(#208,#218),#206);
#208=AXIS2_PLACEMENT_3D('',#232,#219,#220);
#209=AXIS2_PLACEMENT_3D('',#233,#221,$);
#210=AXIS2_PLACEMENT_3D('',#244,#222,$);
#211=AXIS2_PLACEMENT_3D('',#245,#223,$);
#212=AXIS2_PLACEMENT_3D('',#246,#224,$);
#213=AXIS2_PLACEMENT_3D('',#285,#225,$);
#214=AXIS2_PLACEMENT_3D('',#286,#226,$);
#215=AXIS2_PLACEMENT_3D('',#287,#227,$);
#216=AXIS2_PLACEMENT_3D('',#298,#228,$);
#217=AXIS2_PLACEMENT_3D('',#299,#229,$);
#218=AXIS2_PLACEMENT_3D('',#537,#230,#231);
#219=DIRECTION('',(0.,0.,1.));
#220=DIRECTION('',(1.,0.,0.));
#221=DIRECTION('',(-5.60983838532907E-30,2.36850973933599E-15,1.));
#222=DIRECTION('',(3.15796771448932E-15,7.47957006431772E-30,1.));
#223=DIRECTION('',(4.91054121448819E-14,7.66037900920997E-8,0.999999999999997));
#224=DIRECTION('',(4.88498130835067E-14,7.66037957511401E-8,0.999999999999997));
#225=DIRECTION('',(0.,-7.66037677735199E-8,-0.999999999999997));
#226=DIRECTION('',(0.,0.,-1.));
#227=DIRECTION('',(5.60983838532907E-30,-2.36850973933599E-15,1.));
#228=DIRECTION('',(-3.15796771448933E-15,-7.47957006431774E-30,1.));
#229=DIRECTION('',(2.97608554453241E-14,7.66037558671139E-8,0.999999999999997));
#230=DIRECTION('',(0.,0.,1.));
#231=DIRECTION('',(1.,0.,0.));
#232=CARTESIAN_POINT('',(0.,0.,0.));
#233=CARTESIAN_POINT('',(-17.7721503127683,-162.050524002711,110.995323910185));
#234=CARTESIAN_POINT('',(-17.7721503127681,-156.050610014945,112.52510086735));
#235=CARTESIAN_POINT('',(-17.772150312768,-152.496264323983,123.305005275698));
#236=CARTESIAN_POINT('',(-23.7720643005349,-156.050610014945,112.52510086735));
#237=CARTESIAN_POINT('',(-27.3264099914971,-152.496264323983,123.305005275698));
#238=CARTESIAN_POINT('',(-23.7720643005346,-162.050524002712,112.52510086735));
#239=CARTESIAN_POINT('',(-27.3264099914969,-162.050524002712,123.305005275698));
#240=CARTESIAN_POINT('',(-23.7720643005349,-168.050437990478,112.52510086735));
#241=CARTESIAN_POINT('',(-27.3264099914971,-171.604783681441,123.305005275698));
#242=CARTESIAN_POINT('',(-17.772150312768,-168.050437990478,112.52510086735));
#243=CARTESIAN_POINT('',(-17.7721503127678,-171.60478368144,123.305005275698));
#244=CARTESIAN_POINT('',(-17.7721130845024,-162.050560865047,123.806282840752));
#245=CARTESIAN_POINT('',(-17.7721596196965,-162.050513926238,137.203817930969));
#246=CARTESIAN_POINT('',(-7.32785275760949,-172.494825693342,149.568332146017));
#247=CARTESIAN_POINT('',(-24.5227792760275,-155.295352517231,148.418914374272));
#248=CARTESIAN_POINT('',(-23.8159081078234,-156.002699432488,149.568330882658));
#249=CARTESIAN_POINT('',(-25.0150619823185,-155.787150239406,148.418914411943));
#250=CARTESIAN_POINT('',(-24.2566428867545,-156.443000010979,149.568330916384));
#251=CARTESIAN_POINT('',(-25.8205290533593,-156.790763814237,148.418914488826));
#252=CARTESIAN_POINT('',(-24.9777678561173,-157.341523159127,149.568330985217));
#253=CARTESIAN_POINT('',(-26.6866759206792,-158.472820211346,148.418914617675));
#254=CARTESIAN_POINT('',(-25.7532187163839,-158.847447996327,149.568331100573));
#255=CARTESIAN_POINT('',(-27.2030581833884,-160.210219599819,148.418914750772));
#256=CARTESIAN_POINT('',(-26.2155295379749,-160.402920747263,149.568331219733));
#257=CARTESIAN_POINT('',(-27.3820208603816,-162.047278118693,148.418914891494));
#258=CARTESIAN_POINT('',(-26.3757526676369,-162.047617117563,149.56833134572));
#259=CARTESIAN_POINT('',(-27.2043012325854,-163.884476080338,148.418915032231));
#260=CARTESIAN_POINT('',(-26.2166424249522,-163.6924383293,149.568331471721));
#261=CARTESIAN_POINT('',(-26.6890632642831,-165.622195270913,148.418915165347));
#262=CARTESIAN_POINT('',(-25.755356076365,-165.248197395206,149.568331590898));
#263=CARTESIAN_POINT('',(-25.8241041202023,-167.304883586871,148.418915294247));
#264=CARTESIAN_POINT('',(-24.9809685704045,-166.754687981745,149.568331706302));
#265=CARTESIAN_POINT('',(-24.5813928599424,-168.855161391601,148.418915413006));
#266=CARTESIAN_POINT('',(-23.8683841436874,-168.142633032054,149.568331812623));
#267=CARTESIAN_POINT('',(-23.0319300941852,-170.098922400405,148.418915508281));
#268=CARTESIAN_POINT('',(-22.4811687879524,-169.25615728601,149.568331897923));
#269=CARTESIAN_POINT('',(-21.349843506007,-170.965016171944,148.418915574628));
#270=CARTESIAN_POINT('',(-20.975216921052,-170.031560610266,149.568331957322));
#271=CARTESIAN_POINT('',(-19.6124619987246,-171.481419802592,148.418915614188));
#272=CARTESIAN_POINT('',(-19.4197601789316,-170.493890562313,149.568331992741));
#273=CARTESIAN_POINT('',(-17.7753899418518,-171.660374836939,148.418915627894));
#274=CARTESIAN_POINT('',(-17.775051688223,-170.654106849609,149.568332005011));
#275=CARTESIAN_POINT('',(-15.9382062293467,-171.48265300076,148.418915614283));
#276=CARTESIAN_POINT('',(-16.1302432335711,-170.494994629786,149.568331992826));
#277=CARTESIAN_POINT('',(-14.2004700401636,-170.967422133887,148.41891557481));
#278=CARTESIAN_POINT('',(-14.5744689490153,-170.033714639021,149.568331957486));
#279=CARTESIAN_POINT('',(-12.5178053356618,-170.102454137727,148.418915508552));
#280=CARTESIAN_POINT('',(-13.0679995015294,-169.259319207906,149.568331898167));
#281=CARTESIAN_POINT('',(-11.513702247519,-169.297575467922,148.418915446895));
#282=CARTESIAN_POINT('',(-12.1690380980077,-168.538721027086,149.568331842965));
#283=CARTESIAN_POINT('',(-11.0215069242017,-168.805711778168,148.418915409216));
#284=CARTESIAN_POINT('',(-11.7283815520009,-168.098361388614,149.568331809232));
#285=CARTESIAN_POINT('',(-1.44522130807435,-145.72357489164,125.988720017933));
#286=CARTESIAN_POINT('',(-10.4522535274486,-169.370423794707,109.46554695302));
#287=CARTESIAN_POINT('',(-17.7721503127683,-162.050524002711,110.995323910185));
#288=CARTESIAN_POINT('',(-17.7721503127683,-168.050437990478,112.52510086735));
#289=CARTESIAN_POINT('',(-17.7721503127683,-171.60478368144,123.305005275698));
#290=CARTESIAN_POINT('',(-11.7722363250022,-168.050437990478,112.52510086735));
#291=CARTESIAN_POINT('',(-8.21789063403998,-171.60478368144,123.305005275698));
#292=CARTESIAN_POINT('',(-11.7722363250019,-162.050524002712,112.52510086735));
#293=CARTESIAN_POINT('',(-8.21789063403966,-162.050524002712,123.305005275698));
#294=CARTESIAN_POINT('',(-11.7722363250022,-156.050610014945,112.52510086735));
#295=CARTESIAN_POINT('',(-8.21789063403998,-152.496264323983,123.305005275698));
#296=CARTESIAN_POINT('',(-17.7721503127683,-156.050610014945,112.52510086735));
#297=CARTESIAN_POINT('',(-17.7721503127683,-152.496264323983,123.305005275698));
#298=CARTESIAN_POINT('',(-17.7721130845024,-162.050560865047,123.806305832563));
#299=CARTESIAN_POINT('',(-17.7721596196969,-162.050513926239,137.20381808019));
#300=CARTESIAN_POINT('',(-11.0215069242017,-168.805711778168,148.418915409216));
#301=CARTESIAN_POINT('',(-11.7283815520009,-168.098361388614,149.568331809232));
#302=CARTESIAN_POINT('',(-10.5293116008846,-168.313848088414,148.418915371537));
#303=CARTESIAN_POINT('',(-11.2877250059943,-167.658001750143,149.568331775498));
#304=CARTESIAN_POINT('',(-9.72375213219183,-167.310283523902,148.418915294662));
#305=CARTESIAN_POINT('',(-10.5665173141284,-166.759522480345,149.568331706672));
#306=CARTESIAN_POINT('',(-8.85766353929701,-165.628200597757,148.418915165806));
#307=CARTESIAN_POINT('',(-9.79111862624867,-165.253573892015,149.56833159131));
#308=CARTESIAN_POINT('',(-8.34124566809313,-163.890816308538,148.418915032717));
#309=CARTESIAN_POINT('',(-9.32877592480562,-163.698114659261,149.568331472156));
#310=CARTESIAN_POINT('',(-8.16230324838815,-162.053744470084,148.418914891991));
#311=CARTESIAN_POINT('',(-9.16857093124835,-162.053406364099,149.568331346165));
#312=CARTESIAN_POINT('',(-8.34002332679719,-160.216563968182,148.418914751255));
#313=CARTESIAN_POINT('',(-9.32768157736299,-160.408600783861,149.568331220167));
#314=CARTESIAN_POINT('',(-8.85523811153015,-158.478816128836,148.418914618137));
#315=CARTESIAN_POINT('',(-9.78894716997873,-158.852816069057,149.568331100989));
#316=CARTESIAN_POINT('',(-9.72022974404771,-156.796166197169,148.418914489239));
#317=CARTESIAN_POINT('',(-10.5633637624402,-157.346359847512,149.568330985586));
#318=CARTESIAN_POINT('',(-10.9629172602896,-155.245858639515,148.41891437048));
#319=CARTESIAN_POINT('',(-11.6759269314303,-155.958388159767,149.568330879264));
#320=CARTESIAN_POINT('',(-12.5123913373451,-154.00210222199,148.418914275204));
#321=CARTESIAN_POINT('',(-13.0631524140304,-154.844868016329,149.568330793963));
#322=CARTESIAN_POINT('',(-14.1944744932467,-153.136018575015,148.418914208858));
#323=CARTESIAN_POINT('',(-14.5691012080575,-154.069473756474,149.568330734566));
#324=CARTESIAN_POINT('',(-15.9318564863866,-152.61960917027,148.418914169301));
#325=CARTESIAN_POINT('',(-16.1245583851638,-153.607138634947,149.568330699149));
#326=CARTESIAN_POINT('',(-17.7689326864116,-152.440649842946,148.418914155592));
#327=CARTESIAN_POINT('',(-17.7692705851883,-153.446918504201,149.568330686877));
#328=CARTESIAN_POINT('',(-19.6061095107057,-152.61838292709,148.418914169205));
#329=CARTESIAN_POINT('',(-19.4140728729004,-153.606040794193,149.568330699065));
#330=CARTESIAN_POINT('',(-21.3438571613411,-153.133592311329,148.41891420867));
#331=CARTESIAN_POINT('',(-20.9698574187629,-154.067301551811,149.568330734398));
#332=CARTESIAN_POINT('',(-23.0264949349517,-153.998610181059,148.418914274935));
#333=CARTESIAN_POINT('',(-22.4763027553423,-154.841741634135,149.568330793724));
#334=CARTESIAN_POINT('',(-24.0306507420833,-154.803400055117,148.418914336586));
#335=CARTESIAN_POINT('',(-23.3753113575409,-155.562260317191,149.568330848919));
#336=CARTESIAN_POINT('',(-24.5227792760275,-155.295352517231,148.418914374272));
#337=CARTESIAN_POINT('',(-23.8159081078234,-156.002699432488,149.568330882658));
#338=CARTESIAN_POINT('',(-17.7721503127683,-168.050437990478,109.46554695302));
#339=CARTESIAN_POINT('',(-17.7721503127683,-168.050437990478,112.52510086735));
#340=CARTESIAN_POINT('',(-17.7721503127683,-156.050610014945,112.52510086735));
#341=CARTESIAN_POINT('',(-17.7721503127683,-156.050579948189,109.46554695302));
#342=CARTESIAN_POINT('',(-17.7721503127678,-171.05056086497,121.624113910049));
#343=CARTESIAN_POINT('',(-26.772113084502,-162.050560865046,121.62388920237));
#344=CARTESIAN_POINT('',(-17.772150312768,-153.050560865124,121.623890311959));
#345=CARTESIAN_POINT('',(-26.7721130845024,-162.050560865047,125.988722462756));
#346=CARTESIAN_POINT('',(-8.77211308450213,-162.050560865047,125.988722462756));
#347=CARTESIAN_POINT('',(-8.77211308450213,-162.050560865047,121.624115020334));
#348=CARTESIAN_POINT('',(-11.0215399633658,-168.805675482476,125.988721786109));
#349=CARTESIAN_POINT('',(-11.021506716769,-168.805711570875,148.418915409216));
#350=CARTESIAN_POINT('',(-24.5227792760275,-155.295352517231,148.418914374272));
#351=CARTESIAN_POINT('',(-24.5227792760275,-155.295350942433,125.988720751167));
#352=CARTESIAN_POINT('',(-23.8159081078234,-156.002699432488,149.568330882658));
#353=CARTESIAN_POINT('',(-11.7283815520009,-168.098361388614,149.568331809232));
#354=CARTESIAN_POINT('',(-17.7721503127683,-168.050437990478,109.46554695302));
#355=CARTESIAN_POINT('',(-17.7721503127683,-168.050437990478,112.52510086735));
#356=CARTESIAN_POINT('',(-17.7721503127683,-168.050437990478,112.52510086735));
#357=CARTESIAN_POINT('',(-23.7720643005346,-168.050437990478,112.52510086735));
#358=CARTESIAN_POINT('',(-23.7720643005345,-162.050524002711,112.52510086735));
#359=CARTESIAN_POINT('',(-23.7720643005345,-156.050610014945,112.52510086735));
#360=CARTESIAN_POINT('',(-17.7721503127683,-156.050610014945,112.52510086735));
#361=CARTESIAN_POINT('',(-17.7721503127683,-156.050610014945,112.52510086735));
#362=CARTESIAN_POINT('',(-17.7721503127683,-156.050579948189,109.46554695302));
#363=CARTESIAN_POINT('',(-17.7721503127683,-168.050437990478,112.52510086735));
#364=CARTESIAN_POINT('',(-17.7721503127678,-171.05056086497,121.624113910049));
#365=CARTESIAN_POINT('',(-26.772113084502,-162.050560865046,121.62388920237));
#366=CARTESIAN_POINT('',(-26.7721130845022,-162.050548577604,121.62388920237));
#367=CARTESIAN_POINT('',(-26.7721130844772,-162.05053629016,121.62388920237));
#368=CARTESIAN_POINT('',(-26.7721130844269,-162.050524002711,121.623889202141));
#369=CARTESIAN_POINT('',(-26.7721033079803,-159.663588461244,121.623859551351));
#370=CARTESIAN_POINT('',(-25.8238925245058,-157.374418243693,121.623843218748));
#371=CARTESIAN_POINT('',(-24.1360742066635,-155.68659992585,121.623843218749));
#372=CARTESIAN_POINT('',(-22.4482558665605,-153.998781585747,121.623843218748));
#373=CARTESIAN_POINT('',(-20.1590859141353,-153.050570738621,121.623860366825));
#374=CARTESIAN_POINT('',(-17.772150312768,-153.050560865124,121.623890311959));
#375=CARTESIAN_POINT('',(-17.772150312768,-153.050560865124,121.623890311959));
#376=CARTESIAN_POINT('',(-17.7721503127683,-156.050610014945,112.52510086735));
#377=CARTESIAN_POINT('',(-26.772113084502,-162.050560865046,121.62388920237));
#378=CARTESIAN_POINT('',(-26.7721130845024,-162.050560865047,125.988722462756));
#379=CARTESIAN_POINT('',(-26.7721130845024,-162.050560865047,125.988722462756));
#380=CARTESIAN_POINT('',(-26.7721130845021,-153.050560865047,125.988722462756));
#381=CARTESIAN_POINT('',(-17.7721130845023,-153.050560865047,125.988722462756));
#382=CARTESIAN_POINT('',(-8.77211308450247,-153.050560865047,125.988722462756));
#383=CARTESIAN_POINT('',(-8.77211308450213,-162.050560865047,125.988722462756));
#384=CARTESIAN_POINT('',(-8.77211308450213,-162.050560865047,125.988722462756));
#385=CARTESIAN_POINT('',(-8.77211308450213,-162.050560865047,121.624115020334));
#386=CARTESIAN_POINT('',(-8.77211308450213,-162.050560865047,121.624115020334));
#387=CARTESIAN_POINT('',(-8.77211308450185,-162.050548577605,121.624115020105));
#388=CARTESIAN_POINT('',(-8.77211308452752,-162.05053629016,121.624115020105));
#389=CARTESIAN_POINT('',(-8.77211308457799,-162.050524002711,121.624115020105));
#390=CARTESIAN_POINT('',(-8.77212286102486,-159.663588367674,121.624085369084));
#391=CARTESIAN_POINT('',(-9.72033368017313,-157.374418208018,121.624045037145));
#392=CARTESIAN_POINT('',(-11.4081520538234,-155.686599834368,121.624002896463));
#393=CARTESIAN_POINT('',(-11.4081644022572,-155.686587485934,121.624002896232));
#394=CARTESIAN_POINT('',(-11.4081767507267,-155.686575137537,121.624002896232));
#395=CARTESIAN_POINT('',(-11.4081890992316,-155.686562789175,121.624002896232));
#396=CARTESIAN_POINT('',(-13.0960134929652,-153.998758045233,121.623960755414));
#397=CARTESIAN_POINT('',(-15.3851828302443,-153.050560865046,121.623920257615));
#398=CARTESIAN_POINT('',(-17.7721130845025,-153.050560865046,121.623890312426));
#399=CARTESIAN_POINT('',(-17.7721254939208,-153.050560865046,121.623890312193));
#400=CARTESIAN_POINT('',(-17.7721379033425,-153.050560865072,121.623890312193));
#401=CARTESIAN_POINT('',(-17.772150312768,-153.050560865124,121.623890311959));
#402=CARTESIAN_POINT('',(-11.021506716769,-168.805711570875,148.418915409216));
#403=CARTESIAN_POINT('',(-11.0215069933459,-168.805711847266,148.418915409216));
#404=CARTESIAN_POINT('',(-11.513702562896,-169.297575843776,148.418915446895));
#405=CARTESIAN_POINT('',(-12.5178059533841,-170.102454755034,148.418915508552));
#406=CARTESIAN_POINT('',(-14.2004706390674,-170.967422732387,148.41891557481));
#407=CARTESIAN_POINT('',(-15.9382068001038,-171.482653571132,148.418915614283));
#408=CARTESIAN_POINT('',(-17.7753904743935,-171.660375369122,148.418915627894));
#409=CARTESIAN_POINT('',(-19.6124624848337,-171.481420288373,148.418915614188));
#410=CARTESIAN_POINT('',(-21.3498439402025,-170.965016605847,148.418915574628));
#411=CARTESIAN_POINT('',(-23.0319304696817,-170.098922775648,148.418915508281));
#412=CARTESIAN_POINT('',(-24.5813931710905,-168.855161702539,148.418915413006));
#413=CARTESIAN_POINT('',(-25.8241043670027,-167.304883833505,148.418915294247));
#414=CARTESIAN_POINT('',(-26.6890634523841,-165.622195458887,148.418915165347));
#415=CARTESIAN_POINT('',(-27.2043013687729,-163.884476216434,148.418915032231));
#416=CARTESIAN_POINT('',(-27.3820209501363,-162.047278208387,148.418914891494));
#417=CARTESIAN_POINT('',(-27.2030582349281,-160.210219651324,148.418914750772));
#418=CARTESIAN_POINT('',(-26.6866759440714,-158.472820234722,148.418914617675));
#419=CARTESIAN_POINT('',(-25.8205290579347,-156.790763818809,148.418914488826));
#420=CARTESIAN_POINT('',(-25.0150619823149,-155.787150239403,148.418914411943));
#421=CARTESIAN_POINT('',(-24.5227792760275,-155.295352517231,148.418914374272));
#422=CARTESIAN_POINT('',(-11.021506716769,-168.805711570875,148.418915409216));
#423=CARTESIAN_POINT('',(-11.7283815520009,-168.098361388614,149.568331809232));
#424=CARTESIAN_POINT('',(-23.8159081078234,-156.002699432488,149.568330882658));
#425=CARTESIAN_POINT('',(-24.2566428867545,-156.443000010979,149.568330916384));
#426=CARTESIAN_POINT('',(-24.9777678561173,-157.341523159127,149.568330985217));
#427=CARTESIAN_POINT('',(-25.7532187163839,-158.847447996327,149.568331100573));
#428=CARTESIAN_POINT('',(-26.2155295379749,-160.402920747263,149.568331219733));
#429=CARTESIAN_POINT('',(-26.3757526676369,-162.047617117563,149.56833134572));
#430=CARTESIAN_POINT('',(-26.2166424249522,-163.6924383293,149.568331471721));
#431=CARTESIAN_POINT('',(-25.755356076365,-165.248197395206,149.568331590898));
#432=CARTESIAN_POINT('',(-24.9809685704045,-166.754687981745,149.568331706302));
#433=CARTESIAN_POINT('',(-23.8683841436874,-168.142633032054,149.568331812623));
#434=CARTESIAN_POINT('',(-22.4811687879524,-169.25615728601,149.568331897923));
#435=CARTESIAN_POINT('',(-20.975216921052,-170.031560610266,149.568331957322));
#436=CARTESIAN_POINT('',(-19.4197601789316,-170.493890562313,149.568331992741));
#437=CARTESIAN_POINT('',(-17.775051688223,-170.654106849609,149.568332005011));
#438=CARTESIAN_POINT('',(-16.1302432335711,-170.494994629786,149.568331992826));
#439=CARTESIAN_POINT('',(-14.5744689490153,-170.033714639021,149.568331957486));
#440=CARTESIAN_POINT('',(-13.0679995015294,-169.259319207906,149.568331898167));
#441=CARTESIAN_POINT('',(-12.1690380980077,-168.538721027086,149.568331842965));
#442=CARTESIAN_POINT('',(-11.7283815520009,-168.098361388614,149.568331809232));
#443=CARTESIAN_POINT('',(-23.8159081078234,-156.002699432488,149.568330882658));
#444=CARTESIAN_POINT('',(-24.5227792760275,-155.295352517231,148.418914374272));
#445=CARTESIAN_POINT('',(-24.5227792760275,-155.295350942433,125.988720751167));
#446=CARTESIAN_POINT('',(-17.767617006006,-148.544731286103,125.988720234044));
#447=CARTESIAN_POINT('',(-11.0169973496753,-155.299893556124,125.988720751515));
#448=CARTESIAN_POINT('',(-4.26637769334461,-162.055055826145,125.988721268986));
#449=CARTESIAN_POINT('',(-11.0215399633658,-168.805675482476,125.988721786109));
#450=CARTESIAN_POINT('',(-24.5227792760275,-155.295350942433,125.988720751167));
#451=CARTESIAN_POINT('',(-31.2779415460487,-162.045970598764,125.98872126829));
#452=CARTESIAN_POINT('',(-24.527321889718,-168.801132868785,125.988721785761));
#453=CARTESIAN_POINT('',(-17.7767022333873,-175.556295138806,125.988722303232));
#454=CARTESIAN_POINT('',(-11.0215399633658,-168.805675482476,125.988721786109));
#455=CARTESIAN_POINT('',(-17.7721503127683,-156.050579948189,109.46554695302));
#456=CARTESIAN_POINT('',(-11.7722363250022,-156.050610014945,109.46554695302));
#457=CARTESIAN_POINT('',(-11.7722363250019,-162.050524002712,109.46554695302));
#458=CARTESIAN_POINT('',(-11.7722363250022,-168.050437990478,109.46554695302));
#459=CARTESIAN_POINT('',(-17.7721503127683,-168.050437990478,109.46554695302));
#460=CARTESIAN_POINT('',(-17.7721503127683,-156.050579948189,109.46554695302));
#461=CARTESIAN_POINT('',(-23.7720643005349,-156.050610014945,109.46554695302));
#462=CARTESIAN_POINT('',(-23.7720643005346,-162.050524002712,109.46554695302));
#463=CARTESIAN_POINT('',(-23.7720643005349,-168.050437990478,109.46554695302));
#464=CARTESIAN_POINT('',(-17.7721503127683,-168.050437990478,109.46554695302));
#465=CARTESIAN_POINT('',(-17.7721503127683,-156.050610014945,112.52510086735));
#466=CARTESIAN_POINT('',(-11.7722363250019,-156.050610014945,112.52510086735));
#467=CARTESIAN_POINT('',(-11.7722363250019,-162.050524002711,112.52510086735));
#468=CARTESIAN_POINT('',(-11.7722363250019,-168.050437990478,112.52510086735));
#469=CARTESIAN_POINT('',(-17.7721503127683,-168.050437990478,112.52510086735));
#470=CARTESIAN_POINT('',(-17.7721503127678,-171.05056086497,121.624113910049));
#471=CARTESIAN_POINT('',(-20.1590858209984,-171.050550991473,121.624083964917));
#472=CARTESIAN_POINT('',(-22.4482558311938,-170.102340179712,121.624043467616));
#473=CARTESIAN_POINT('',(-24.1360741151803,-168.414521895725,121.624001326703));
#474=CARTESIAN_POINT('',(-24.1360864636138,-168.414509547292,121.624001326702));
#475=CARTESIAN_POINT('',(-24.1360988120116,-168.414497198823,121.624001326703));
#476=CARTESIAN_POINT('',(-24.136111160427,-168.414484850371,121.624001326472));
#477=CARTESIAN_POINT('',(-25.8239159043149,-166.726660456584,121.623959185885));
#478=CARTESIAN_POINT('',(-26.7721130845018,-164.437491119307,121.623918853445));
#479=CARTESIAN_POINT('',(-26.772113084502,-162.050560865046,121.62388920237));
#480=CARTESIAN_POINT('',(-8.77211308450213,-162.050560865047,121.624115020334));
#481=CARTESIAN_POINT('',(-8.77211308450188,-164.437509366859,121.624144671161));
#482=CARTESIAN_POINT('',(-9.72032468323003,-166.726694525132,121.624161003723));
#483=CARTESIAN_POINT('',(-11.4081521453057,-168.414521987208,121.624161003724));
#484=CARTESIAN_POINT('',(-13.0959794954492,-170.102349337352,121.624161003725));
#485=CARTESIAN_POINT('',(-15.385164769419,-171.050560865046,121.624143855685));
#486=CARTESIAN_POINT('',(-17.772113084502,-171.050560865046,121.624113910282));
#487=CARTESIAN_POINT('',(-17.7721254939203,-171.050560865046,121.624113910282));
#488=CARTESIAN_POINT('',(-17.7721379033428,-171.050560865021,121.624113910282));
#489=CARTESIAN_POINT('',(-17.7721503127678,-171.05056086497,121.624113910049));
#490=CARTESIAN_POINT('',(-26.7721130845024,-162.050560865047,125.988722462756));
#491=CARTESIAN_POINT('',(-26.7721130845024,-171.050560865047,125.988722462756));
#492=CARTESIAN_POINT('',(-17.7721130845023,-171.050560865047,125.988722462756));
#493=CARTESIAN_POINT('',(-8.77211308450213,-171.050560865047,125.988722462756));
#494=CARTESIAN_POINT('',(-8.77211308450213,-162.050560865047,125.988722462756));
#495=CARTESIAN_POINT('',(-24.5227792760275,-155.295352517231,148.418914374272));
#496=CARTESIAN_POINT('',(-24.5227792760275,-155.295350942433,125.988720751167));
#497=CARTESIAN_POINT('',(-11.0215399633658,-168.805675482476,125.988721786109));
#498=CARTESIAN_POINT('',(-11.021506716769,-168.805711570875,148.418915409216));
#499=CARTESIAN_POINT('',(-24.5227792760275,-155.295352517231,148.418914374272));
#500=CARTESIAN_POINT('',(-24.0306507420797,-154.803400055114,148.418914336586));
#501=CARTESIAN_POINT('',(-23.0264949395271,-153.998610185631,148.418914274935));
#502=CARTESIAN_POINT('',(-21.3438571847333,-153.133592334705,148.41891420867));
#503=CARTESIAN_POINT('',(-19.6061095622454,-152.618382978595,148.418914169205));
#504=CARTESIAN_POINT('',(-17.7689327761662,-152.44064993264,148.418914155592));
#505=CARTESIAN_POINT('',(-15.9318566225741,-152.619609306366,148.418914169301));
#506=CARTESIAN_POINT('',(-14.1944746813479,-153.136018762989,148.418914208858));
#507=CARTESIAN_POINT('',(-12.512391584145,-154.002102468623,148.418914275204));
#508=CARTESIAN_POINT('',(-10.962917571438,-155.245858950454,148.41891437048));
#509=CARTESIAN_POINT('',(-9.72023011954397,-156.796166572412,148.418914489239));
#510=CARTESIAN_POINT('',(-8.8552385457257,-158.478816562739,148.418914618137));
#511=CARTESIAN_POINT('',(-8.3400238129063,-160.216564453963,148.418914751255));
#512=CARTESIAN_POINT('',(-8.1623037809297,-162.053745002267,148.418914891991));
#513=CARTESIAN_POINT('',(-8.34124623885054,-163.890816878911,148.418915032717));
#514=CARTESIAN_POINT('',(-8.85766413820069,-165.628201196257,148.418915165806));
#515=CARTESIAN_POINT('',(-9.7237525701664,-167.31028379211,148.418915294662));
#516=CARTESIAN_POINT('',(-10.529311730717,-168.31384809678,148.418915371537));
#517=CARTESIAN_POINT('',(-11.021506716769,-168.805711570875,148.418915409216));
#518=CARTESIAN_POINT('',(-11.7283815520009,-168.098361388614,149.568331809232));
#519=CARTESIAN_POINT('',(-11.2877250059943,-167.658001750143,149.568331775498));
#520=CARTESIAN_POINT('',(-10.5665173141284,-166.759522480345,149.568331706672));
#521=CARTESIAN_POINT('',(-9.79111862624867,-165.253573892015,149.56833159131));
#522=CARTESIAN_POINT('',(-9.32877592480562,-163.698114659261,149.568331472156));
#523=CARTESIAN_POINT('',(-9.16857093124835,-162.053406364099,149.568331346165));
#524=CARTESIAN_POINT('',(-9.32768157736299,-160.408600783861,149.568331220167));
#525=CARTESIAN_POINT('',(-9.78894716997873,-158.852816069057,149.568331100989));
#526=CARTESIAN_POINT('',(-10.5633637624402,-157.346359847512,149.568330985586));
#527=CARTESIAN_POINT('',(-11.6759269314303,-155.958388159767,149.568330879264));
#528=CARTESIAN_POINT('',(-13.0631524140304,-154.844868016329,149.568330793963));
#529=CARTESIAN_POINT('',(-14.5691012080575,-154.069473756474,149.568330734566));
#530=CARTESIAN_POINT('',(-16.1245583851638,-153.607138634947,149.568330699149));
#531=CARTESIAN_POINT('',(-17.7692705851883,-153.446918504201,149.568330686877));
#532=CARTESIAN_POINT('',(-19.4140728729004,-153.606040794193,149.568330699065));
#533=CARTESIAN_POINT('',(-20.9698574187629,-154.067301551811,149.568330734398));
#534=CARTESIAN_POINT('',(-22.4763027553423,-154.841741634135,149.568330793724));
#535=CARTESIAN_POINT('',(-23.3753113575409,-155.562260317191,149.568330848919));
#536=CARTESIAN_POINT('',(-23.8159081078234,-156.002699432488,149.568330882658));
#537=CARTESIAN_POINT('',(0.,0.,0.));
ENDSEC;
END-ISO-10303-21;
