ISO-10303-21;
HEADER;
/* Generated by software containing ST-Developer
 * from STEP Tools, Inc. (www.steptools.com) 
 */
/* OPTION: using custom schema-name function */

FILE_DESCRIPTION(
/* description */ (''),
/* implementation_level */ '2;1');

FILE_NAME(
/* name */ 'STE7FCB',
/* time_stamp */ '2026-04-11T11:42:21+08:00',
/* author */ (''),
/* organization */ (''),
/* preprocessor_version */ 'ST-DEVELOPER v16.5',
/* originating_system */ '',
/* authorisation */ '');

FILE_SCHEMA (('AUTOMOTIVE_DESIGN'));
ENDSEC;

DATA;
#10=SHAPE_REPRESENTATION_RELATIONSHIP('','',#541,#13);
#11=PRESENTATION_LAYER_ASSIGNMENT('\X2\56FE5C42\X0\ 01','',(#12));
#12=MANIFOLD_SOLID_BREP('brep_1',#14);
#13=ADVANCED_BREP_SHAPE_REPRESENTATION('brep_rep_0',(#12,#574),#540);
#14=CLOSED_SHELL('',(#15,#16,#17,#18,#19,#20,#21,#22,#23,#24,#25,#26,#27,
#28,#29,#30,#31,#32,#33,#34,#35,#36,#37,#38,#39,#40,#41,#42,#43,#44,#45,
#46));
#15=ADVANCED_FACE('',(#47),#515,.T.);
#16=ADVANCED_FACE('',(#48),#492,.T.);
#17=ADVANCED_FACE('',(#49),#516,.T.);
#18=ADVANCED_FACE('',(#50),#493,.T.);
#19=ADVANCED_FACE('',(#51),#517,.T.);
#20=ADVANCED_FACE('',(#52),#491,.T.);
#21=ADVANCED_FACE('',(#53),#518,.T.);
#22=ADVANCED_FACE('',(#54),#494,.T.);
#23=ADVANCED_FACE('',(#55),#519,.T.);
#24=ADVANCED_FACE('',(#56),#495,.T.);
#25=ADVANCED_FACE('',(#57),#520,.T.);
#26=ADVANCED_FACE('',(#58),#496,.T.);
#27=ADVANCED_FACE('',(#59),#497,.T.);
#28=ADVANCED_FACE('',(#60),#498,.T.);
#29=ADVANCED_FACE('',(#61),#499,.T.);
#30=ADVANCED_FACE('',(#62),#500,.T.);
#31=ADVANCED_FACE('',(#63),#501,.T.);
#32=ADVANCED_FACE('',(#64),#502,.T.);
#33=ADVANCED_FACE('',(#65),#503,.T.);
#34=ADVANCED_FACE('',(#66),#504,.T.);
#35=ADVANCED_FACE('',(#67),#505,.T.);
#36=ADVANCED_FACE('',(#68),#506,.T.);
#37=ADVANCED_FACE('',(#69),#507,.T.);
#38=ADVANCED_FACE('',(#70),#508,.T.);
#39=ADVANCED_FACE('',(#71),#509,.T.);
#40=ADVANCED_FACE('',(#72),#510,.T.);
#41=ADVANCED_FACE('',(#73),#521,.F.);
#42=ADVANCED_FACE('',(#74),#511,.T.);
#43=ADVANCED_FACE('',(#75),#522,.F.);
#44=ADVANCED_FACE('',(#76),#512,.T.);
#45=ADVANCED_FACE('',(#77),#513,.T.);
#46=ADVANCED_FACE('',(#78),#514,.T.);
#47=FACE_OUTER_BOUND('',#79,.T.);
#48=FACE_OUTER_BOUND('',#80,.T.);
#49=FACE_OUTER_BOUND('',#81,.T.);
#50=FACE_OUTER_BOUND('',#82,.T.);
#51=FACE_OUTER_BOUND('',#83,.T.);
#52=FACE_OUTER_BOUND('',#84,.T.);
#53=FACE_OUTER_BOUND('',#85,.T.);
#54=FACE_OUTER_BOUND('',#86,.T.);
#55=FACE_OUTER_BOUND('',#87,.T.);
#56=FACE_OUTER_BOUND('',#88,.T.);
#57=FACE_OUTER_BOUND('',#89,.T.);
#58=FACE_OUTER_BOUND('',#90,.T.);
#59=FACE_OUTER_BOUND('',#91,.T.);
#60=FACE_OUTER_BOUND('',#92,.T.);
#61=FACE_OUTER_BOUND('',#93,.T.);
#62=FACE_OUTER_BOUND('',#94,.T.);
#63=FACE_OUTER_BOUND('',#95,.T.);
#64=FACE_OUTER_BOUND('',#96,.T.);
#65=FACE_OUTER_BOUND('',#97,.T.);
#66=FACE_OUTER_BOUND('',#98,.T.);
#67=FACE_OUTER_BOUND('',#99,.T.);
#68=FACE_OUTER_BOUND('',#100,.T.);
#69=FACE_OUTER_BOUND('',#101,.T.);
#70=FACE_OUTER_BOUND('',#102,.T.);
#71=FACE_OUTER_BOUND('',#103,.T.);
#72=FACE_OUTER_BOUND('',#104,.T.);
#73=FACE_OUTER_BOUND('',#105,.T.);
#74=FACE_OUTER_BOUND('',#106,.T.);
#75=FACE_OUTER_BOUND('',#107,.T.);
#76=FACE_OUTER_BOUND('',#108,.T.);
#77=FACE_OUTER_BOUND('',#109,.T.);
#78=FACE_OUTER_BOUND('',#110,.T.);
#79=EDGE_LOOP('',(#111,#112,#113,#114));
#80=EDGE_LOOP('',(#115,#116,#117,#118));
#81=EDGE_LOOP('',(#119,#120,#121,#122));
#82=EDGE_LOOP('',(#123,#124,#125,#126));
#83=EDGE_LOOP('',(#127,#128,#129,#130));
#84=EDGE_LOOP('',(#131,#132,#133,#134));
#85=EDGE_LOOP('',(#135,#136,#137,#138));
#86=EDGE_LOOP('',(#139,#140,#141,#142));
#87=EDGE_LOOP('',(#143,#144,#145,#146));
#88=EDGE_LOOP('',(#147,#148,#149,#150));
#89=EDGE_LOOP('',(#151,#152,#153,#154));
#90=EDGE_LOOP('',(#155,#156,#157,#158));
#91=EDGE_LOOP('',(#159,#160,#161,#162));
#92=EDGE_LOOP('',(#163,#164,#165,#166,#167,#168,#169,#170,#171,#172,#173,
#174,#175,#176));
#93=EDGE_LOOP('',(#177,#178,#179,#180,#181,#182,#183,#184,#185,#186,#187,
#188,#189,#190));
#94=EDGE_LOOP('',(#191,#192,#193,#194));
#95=EDGE_LOOP('',(#195,#196,#197,#198));
#96=EDGE_LOOP('',(#199,#200,#201,#202));
#97=EDGE_LOOP('',(#203,#204,#205,#206));
#98=EDGE_LOOP('',(#207,#208,#209,#210,#211,#212,#213,#214,#215,#216,#217,
#218));
#99=EDGE_LOOP('',(#219,#220,#221,#222));
#100=EDGE_LOOP('',(#223,#224,#225,#226,#227,#228,#229,#230,#231,#232,#233,
#234));
#101=EDGE_LOOP('',(#235,#236,#237,#238));
#102=EDGE_LOOP('',(#239,#240,#241,#242));
#103=EDGE_LOOP('',(#243,#244,#245,#246));
#104=EDGE_LOOP('',(#247,#248,#249,#250));
#105=EDGE_LOOP('',(#251,#252,#253,#254));
#106=EDGE_LOOP('',(#255,#256,#257,#258));
#107=EDGE_LOOP('',(#259,#260,#261,#262));
#108=EDGE_LOOP('',(#263,#264,#265,#266));
#109=EDGE_LOOP('',(#267,#268,#269,#270));
#110=EDGE_LOOP('',(#271,#272,#273,#274));
#111=ORIENTED_EDGE('',*,*,#275,.T.);
#112=ORIENTED_EDGE('',*,*,#276,.T.);
#113=ORIENTED_EDGE('',*,*,#277,.T.);
#114=ORIENTED_EDGE('',*,*,#278,.T.);
#115=ORIENTED_EDGE('',*,*,#279,.T.);
#116=ORIENTED_EDGE('',*,*,#280,.T.);
#117=ORIENTED_EDGE('',*,*,#281,.T.);
#118=ORIENTED_EDGE('',*,*,#276,.F.);
#119=ORIENTED_EDGE('',*,*,#282,.T.);
#120=ORIENTED_EDGE('',*,*,#283,.T.);
#121=ORIENTED_EDGE('',*,*,#284,.T.);
#122=ORIENTED_EDGE('',*,*,#280,.F.);
#123=ORIENTED_EDGE('',*,*,#285,.T.);
#124=ORIENTED_EDGE('',*,*,#286,.T.);
#125=ORIENTED_EDGE('',*,*,#287,.T.);
#126=ORIENTED_EDGE('',*,*,#283,.F.);
#127=ORIENTED_EDGE('',*,*,#288,.T.);
#128=ORIENTED_EDGE('',*,*,#289,.T.);
#129=ORIENTED_EDGE('',*,*,#290,.T.);
#130=ORIENTED_EDGE('',*,*,#286,.F.);
#131=ORIENTED_EDGE('',*,*,#291,.T.);
#132=ORIENTED_EDGE('',*,*,#292,.T.);
#133=ORIENTED_EDGE('',*,*,#293,.T.);
#134=ORIENTED_EDGE('',*,*,#289,.F.);
#135=ORIENTED_EDGE('',*,*,#294,.T.);
#136=ORIENTED_EDGE('',*,*,#295,.T.);
#137=ORIENTED_EDGE('',*,*,#296,.T.);
#138=ORIENTED_EDGE('',*,*,#292,.F.);
#139=ORIENTED_EDGE('',*,*,#297,.T.);
#140=ORIENTED_EDGE('',*,*,#298,.T.);
#141=ORIENTED_EDGE('',*,*,#299,.T.);
#142=ORIENTED_EDGE('',*,*,#295,.F.);
#143=ORIENTED_EDGE('',*,*,#300,.T.);
#144=ORIENTED_EDGE('',*,*,#301,.T.);
#145=ORIENTED_EDGE('',*,*,#302,.T.);
#146=ORIENTED_EDGE('',*,*,#298,.F.);
#147=ORIENTED_EDGE('',*,*,#303,.T.);
#148=ORIENTED_EDGE('',*,*,#304,.T.);
#149=ORIENTED_EDGE('',*,*,#305,.T.);
#150=ORIENTED_EDGE('',*,*,#301,.F.);
#151=ORIENTED_EDGE('',*,*,#306,.T.);
#152=ORIENTED_EDGE('',*,*,#307,.T.);
#153=ORIENTED_EDGE('',*,*,#308,.T.);
#154=ORIENTED_EDGE('',*,*,#304,.F.);
#155=ORIENTED_EDGE('',*,*,#309,.T.);
#156=ORIENTED_EDGE('',*,*,#310,.T.);
#157=ORIENTED_EDGE('',*,*,#311,.T.);
#158=ORIENTED_EDGE('',*,*,#307,.F.);
#159=ORIENTED_EDGE('',*,*,#312,.T.);
#160=ORIENTED_EDGE('',*,*,#278,.F.);
#161=ORIENTED_EDGE('',*,*,#313,.T.);
#162=ORIENTED_EDGE('',*,*,#314,.T.);
#163=ORIENTED_EDGE('',*,*,#312,.F.);
#164=ORIENTED_EDGE('',*,*,#315,.T.);
#165=ORIENTED_EDGE('',*,*,#309,.F.);
#166=ORIENTED_EDGE('',*,*,#306,.F.);
#167=ORIENTED_EDGE('',*,*,#303,.F.);
#168=ORIENTED_EDGE('',*,*,#300,.F.);
#169=ORIENTED_EDGE('',*,*,#297,.F.);
#170=ORIENTED_EDGE('',*,*,#294,.F.);
#171=ORIENTED_EDGE('',*,*,#291,.F.);
#172=ORIENTED_EDGE('',*,*,#288,.F.);
#173=ORIENTED_EDGE('',*,*,#285,.F.);
#174=ORIENTED_EDGE('',*,*,#282,.F.);
#175=ORIENTED_EDGE('',*,*,#279,.F.);
#176=ORIENTED_EDGE('',*,*,#275,.F.);
#177=ORIENTED_EDGE('',*,*,#277,.F.);
#178=ORIENTED_EDGE('',*,*,#281,.F.);
#179=ORIENTED_EDGE('',*,*,#284,.F.);
#180=ORIENTED_EDGE('',*,*,#287,.F.);
#181=ORIENTED_EDGE('',*,*,#290,.F.);
#182=ORIENTED_EDGE('',*,*,#293,.F.);
#183=ORIENTED_EDGE('',*,*,#296,.F.);
#184=ORIENTED_EDGE('',*,*,#299,.F.);
#185=ORIENTED_EDGE('',*,*,#302,.F.);
#186=ORIENTED_EDGE('',*,*,#305,.F.);
#187=ORIENTED_EDGE('',*,*,#308,.F.);
#188=ORIENTED_EDGE('',*,*,#311,.F.);
#189=ORIENTED_EDGE('',*,*,#316,.T.);
#190=ORIENTED_EDGE('',*,*,#313,.F.);
#191=ORIENTED_EDGE('',*,*,#317,.T.);
#192=ORIENTED_EDGE('',*,*,#310,.F.);
#193=ORIENTED_EDGE('',*,*,#318,.T.);
#194=ORIENTED_EDGE('',*,*,#319,.T.);
#195=ORIENTED_EDGE('',*,*,#318,.F.);
#196=ORIENTED_EDGE('',*,*,#315,.F.);
#197=ORIENTED_EDGE('',*,*,#321,.T.);
#198=ORIENTED_EDGE('',*,*,#320,.T.);
#199=ORIENTED_EDGE('',*,*,#321,.F.);
#200=ORIENTED_EDGE('',*,*,#314,.F.);
#201=ORIENTED_EDGE('',*,*,#322,.T.);
#202=ORIENTED_EDGE('',*,*,#323,.T.);
#203=ORIENTED_EDGE('',*,*,#322,.F.);
#204=ORIENTED_EDGE('',*,*,#316,.F.);
#205=ORIENTED_EDGE('',*,*,#317,.F.);
#206=ORIENTED_EDGE('',*,*,#324,.T.);
#207=ORIENTED_EDGE('',*,*,#325,.T.);
#208=ORIENTED_EDGE('',*,*,#352,.T.);
#209=ORIENTED_EDGE('',*,*,#354,.T.);
#210=ORIENTED_EDGE('',*,*,#326,.T.);
#211=ORIENTED_EDGE('',*,*,#327,.T.);
#212=ORIENTED_EDGE('',*,*,#356,.T.);
#213=ORIENTED_EDGE('',*,*,#320,.F.);
#214=ORIENTED_EDGE('',*,*,#355,.T.);
#215=ORIENTED_EDGE('',*,*,#328,.T.);
#216=ORIENTED_EDGE('',*,*,#329,.T.);
#217=ORIENTED_EDGE('',*,*,#343,.T.);
#218=ORIENTED_EDGE('',*,*,#346,.T.);
#219=ORIENTED_EDGE('',*,*,#330,.T.);
#220=ORIENTED_EDGE('',*,*,#331,.T.);
#221=ORIENTED_EDGE('',*,*,#332,.T.);
#222=ORIENTED_EDGE('',*,*,#328,.F.);
#223=ORIENTED_EDGE('',*,*,#333,.T.);
#224=ORIENTED_EDGE('',*,*,#348,.T.);
#225=ORIENTED_EDGE('',*,*,#344,.T.);
#226=ORIENTED_EDGE('',*,*,#334,.T.);
#227=ORIENTED_EDGE('',*,*,#331,.F.);
#228=ORIENTED_EDGE('',*,*,#335,.T.);
#229=ORIENTED_EDGE('',*,*,#324,.F.);
#230=ORIENTED_EDGE('',*,*,#336,.T.);
#231=ORIENTED_EDGE('',*,*,#337,.T.);
#232=ORIENTED_EDGE('',*,*,#338,.T.);
#233=ORIENTED_EDGE('',*,*,#353,.T.);
#234=ORIENTED_EDGE('',*,*,#350,.T.);
#235=ORIENTED_EDGE('',*,*,#339,.T.);
#236=ORIENTED_EDGE('',*,*,#327,.F.);
#237=ORIENTED_EDGE('',*,*,#340,.T.);
#238=ORIENTED_EDGE('',*,*,#337,.F.);
#239=ORIENTED_EDGE('',*,*,#341,.T.);
#240=ORIENTED_EDGE('',*,*,#338,.F.);
#241=ORIENTED_EDGE('',*,*,#340,.F.);
#242=ORIENTED_EDGE('',*,*,#326,.F.);
#243=ORIENTED_EDGE('',*,*,#329,.F.);
#244=ORIENTED_EDGE('',*,*,#332,.F.);
#245=ORIENTED_EDGE('',*,*,#334,.F.);
#246=ORIENTED_EDGE('',*,*,#342,.T.);
#247=ORIENTED_EDGE('',*,*,#347,.F.);
#248=ORIENTED_EDGE('',*,*,#343,.F.);
#249=ORIENTED_EDGE('',*,*,#342,.F.);
#250=ORIENTED_EDGE('',*,*,#344,.F.);
#251=ORIENTED_EDGE('',*,*,#345,.T.);
#252=ORIENTED_EDGE('',*,*,#346,.F.);
#253=ORIENTED_EDGE('',*,*,#347,.T.);
#254=ORIENTED_EDGE('',*,*,#348,.F.);
#255=ORIENTED_EDGE('',*,*,#345,.F.);
#256=ORIENTED_EDGE('',*,*,#333,.F.);
#257=ORIENTED_EDGE('',*,*,#349,.T.);
#258=ORIENTED_EDGE('',*,*,#325,.F.);
#259=ORIENTED_EDGE('',*,*,#349,.F.);
#260=ORIENTED_EDGE('',*,*,#350,.F.);
#261=ORIENTED_EDGE('',*,*,#351,.T.);
#262=ORIENTED_EDGE('',*,*,#352,.F.);
#263=ORIENTED_EDGE('',*,*,#351,.F.);
#264=ORIENTED_EDGE('',*,*,#353,.F.);
#265=ORIENTED_EDGE('',*,*,#341,.F.);
#266=ORIENTED_EDGE('',*,*,#354,.F.);
#267=ORIENTED_EDGE('',*,*,#323,.F.);
#268=ORIENTED_EDGE('',*,*,#335,.F.);
#269=ORIENTED_EDGE('',*,*,#330,.F.);
#270=ORIENTED_EDGE('',*,*,#355,.F.);
#271=ORIENTED_EDGE('',*,*,#319,.F.);
#272=ORIENTED_EDGE('',*,*,#356,.F.);
#273=ORIENTED_EDGE('',*,*,#339,.F.);
#274=ORIENTED_EDGE('',*,*,#336,.F.);
#275=EDGE_CURVE('',#439,#440,#391,.T.);
#276=EDGE_CURVE('',#440,#441,#392,.T.);
#277=EDGE_CURVE('',#441,#442,#393,.T.);
#278=EDGE_CURVE('',#442,#439,#394,.T.);
#279=EDGE_CURVE('',#440,#443,#395,.T.);
#280=EDGE_CURVE('',#443,#444,#396,.T.);
#281=EDGE_CURVE('',#444,#441,#397,.T.);
#282=EDGE_CURVE('',#443,#445,#398,.T.);
#283=EDGE_CURVE('',#445,#446,#399,.T.);
#284=EDGE_CURVE('',#446,#444,#400,.T.);
#285=EDGE_CURVE('',#445,#447,#401,.T.);
#286=EDGE_CURVE('',#447,#448,#402,.T.);
#287=EDGE_CURVE('',#448,#446,#403,.T.);
#288=EDGE_CURVE('',#447,#449,#404,.T.);
#289=EDGE_CURVE('',#449,#450,#405,.T.);
#290=EDGE_CURVE('',#450,#448,#406,.T.);
#291=EDGE_CURVE('',#449,#451,#407,.T.);
#292=EDGE_CURVE('',#451,#452,#408,.T.);
#293=EDGE_CURVE('',#452,#450,#409,.T.);
#294=EDGE_CURVE('',#451,#453,#410,.T.);
#295=EDGE_CURVE('',#453,#454,#411,.T.);
#296=EDGE_CURVE('',#454,#452,#412,.T.);
#297=EDGE_CURVE('',#453,#455,#413,.T.);
#298=EDGE_CURVE('',#455,#456,#414,.T.);
#299=EDGE_CURVE('',#456,#454,#415,.T.);
#300=EDGE_CURVE('',#455,#457,#416,.T.);
#301=EDGE_CURVE('',#457,#458,#417,.T.);
#302=EDGE_CURVE('',#458,#456,#418,.T.);
#303=EDGE_CURVE('',#457,#459,#419,.T.);
#304=EDGE_CURVE('',#459,#460,#420,.T.);
#305=EDGE_CURVE('',#460,#458,#421,.T.);
#306=EDGE_CURVE('',#459,#461,#422,.T.);
#307=EDGE_CURVE('',#461,#462,#423,.T.);
#308=EDGE_CURVE('',#462,#460,#424,.T.);
#309=EDGE_CURVE('',#461,#463,#425,.T.);
#310=EDGE_CURVE('',#463,#464,#426,.T.);
#311=EDGE_CURVE('',#464,#462,#427,.T.);
#312=EDGE_CURVE('',#465,#439,#428,.T.);
#313=EDGE_CURVE('',#442,#466,#429,.T.);
#314=EDGE_CURVE('',#466,#465,#430,.T.);
#315=EDGE_CURVE('',#465,#463,#431,.T.);
#316=EDGE_CURVE('',#464,#466,#432,.T.);
#317=EDGE_CURVE('',#467,#464,#357,.T.);
#318=EDGE_CURVE('',#463,#468,#358,.T.);
#319=EDGE_CURVE('',#468,#467,#359,.T.);
#320=EDGE_CURVE('',#469,#468,#360,.T.);
#321=EDGE_CURVE('',#465,#469,#361,.T.);
#322=EDGE_CURVE('',#466,#470,#362,.T.);
#323=EDGE_CURVE('',#470,#469,#363,.T.);
#324=EDGE_CURVE('',#467,#470,#364,.T.);
#325=EDGE_CURVE('',#471,#472,#365,.T.);
#326=EDGE_CURVE('',#474,#475,#366,.T.);
#327=EDGE_CURVE('',#475,#476,#367,.T.);
#328=EDGE_CURVE('',#477,#478,#368,.T.);
#329=EDGE_CURVE('',#478,#479,#369,.T.);
#330=EDGE_CURVE('',#477,#481,#370,.T.);
#331=EDGE_CURVE('',#481,#482,#371,.T.);
#332=EDGE_CURVE('',#482,#478,#372,.T.);
#333=EDGE_CURVE('',#483,#484,#373,.T.);
#334=EDGE_CURVE('',#486,#482,#374,.T.);
#335=EDGE_CURVE('',#481,#470,#375,.T.);
#336=EDGE_CURVE('',#467,#487,#376,.T.);
#337=EDGE_CURVE('',#487,#488,#377,.T.);
#338=EDGE_CURVE('',#488,#489,#378,.T.);
#339=EDGE_CURVE('',#487,#476,#379,.T.);
#340=EDGE_CURVE('',#475,#488,#380,.T.);
#341=EDGE_CURVE('',#474,#489,#381,.T.);
#342=EDGE_CURVE('',#486,#479,#382,.T.);
#343=EDGE_CURVE('',#479,#480,#383,.T.);
#344=EDGE_CURVE('',#485,#486,#384,.T.);
#345=EDGE_CURVE('',#484,#471,#433,.T.);
#346=EDGE_CURVE('',#480,#471,#434,.T.);
#347=EDGE_CURVE('',#480,#485,#385,.T.);
#348=EDGE_CURVE('',#484,#485,#435,.T.);
#349=EDGE_CURVE('',#483,#472,#386,.T.);
#350=EDGE_CURVE('',#490,#483,#436,.T.);
#351=EDGE_CURVE('',#490,#473,#437,.T.);
#352=EDGE_CURVE('',#472,#473,#438,.T.);
#353=EDGE_CURVE('',#489,#490,#387,.T.);
#354=EDGE_CURVE('',#473,#474,#388,.T.);
#355=EDGE_CURVE('',#469,#477,#389,.T.);
#356=EDGE_CURVE('',#476,#468,#390,.T.);
#357=B_SPLINE_CURVE_WITH_KNOTS('',1,(#836,#837),.UNSPECIFIED.,.F.,.F.,(2,
2),(0.,0.793890708083012),.UNSPECIFIED.);
#358=B_SPLINE_CURVE_WITH_KNOTS('',1,(#838,#839),.UNSPECIFIED.,.F.,.F.,(2,
2),(0.,0.793890708185935),.UNSPECIFIED.);
#359=B_SPLINE_CURVE_WITH_KNOTS('',1,(#840,#841),.UNSPECIFIED.,.F.,.F.,(2,
2),(0.,10.80001325702),.UNSPECIFIED.);
#360=B_SPLINE_CURVE_WITH_KNOTS('',1,(#842,#843),.UNSPECIFIED.,.F.,.F.,(2,
2),(0.,14.1336165409),.UNSPECIFIED.);
#361=B_SPLINE_CURVE_WITH_KNOTS('',1,(#844,#845),.UNSPECIFIED.,.F.,.F.,(2,
2),(-0.793890708185935,0.),.UNSPECIFIED.);
#362=B_SPLINE_CURVE_WITH_KNOTS('',1,(#846,#847),.UNSPECIFIED.,.F.,.F.,(2,
2),(0.,0.793890708083012),.UNSPECIFIED.);
#363=B_SPLINE_CURVE_WITH_KNOTS('',1,(#848,#849),.UNSPECIFIED.,.F.,.F.,(2,
2),(0.,10.80001325702),.UNSPECIFIED.);
#364=B_SPLINE_CURVE_WITH_KNOTS('',1,(#850,#851),.UNSPECIFIED.,.F.,.F.,(2,
2),(0.,14.1336165409),.UNSPECIFIED.);
#365=B_SPLINE_CURVE_WITH_KNOTS('',1,(#852,#853),.UNSPECIFIED.,.F.,.F.,(2,
2),(0.,34.07929710338),.UNSPECIFIED.);
#366=B_SPLINE_CURVE_WITH_KNOTS('',1,(#854,#855),.UNSPECIFIED.,.F.,.F.,(2,
2),(0.,0.7190095911401),.UNSPECIFIED.);
#367=B_SPLINE_CURVE_WITH_KNOTS('',1,(#856,#857),.UNSPECIFIED.,.F.,.F.,(2,
2),(0.,6.),.UNSPECIFIED.);
#368=B_SPLINE_CURVE_WITH_KNOTS('',1,(#858,#859),.UNSPECIFIED.,.F.,.F.,(2,
2),(0.,6.),.UNSPECIFIED.);
#369=B_SPLINE_CURVE_WITH_KNOTS('',1,(#860,#861),.UNSPECIFIED.,.F.,.F.,(2,
2),(0.,0.7190095911401),.UNSPECIFIED.);
#370=B_SPLINE_CURVE_WITH_KNOTS('',1,(#862,#863),.UNSPECIFIED.,.F.,.F.,(2,
2),(0.,10.8000260406033),.UNSPECIFIED.);
#371=B_SPLINE_CURVE_WITH_KNOTS('',1,(#864,#865),.UNSPECIFIED.,.F.,.F.,(2,
2),(0.,6.),.UNSPECIFIED.);
#372=B_SPLINE_CURVE_WITH_KNOTS('',1,(#866,#867),.UNSPECIFIED.,.F.,.F.,(2,
2),(0.,10.8000260406033),.UNSPECIFIED.);
#373=B_SPLINE_CURVE_WITH_KNOTS('',1,(#868,#869),.UNSPECIFIED.,.F.,.F.,(2,
2),(0.,34.07929710338),.UNSPECIFIED.);
#374=B_SPLINE_CURVE_WITH_KNOTS('',1,(#870,#871),.UNSPECIFIED.,.F.,.F.,(2,
2),(0.,0.71900114877008),.UNSPECIFIED.);
#375=B_SPLINE_CURVE_WITH_KNOTS('',1,(#872,#873),.UNSPECIFIED.,.F.,.F.,(2,
2),(0.,13.23360006744),.UNSPECIFIED.);
#376=B_SPLINE_CURVE_WITH_KNOTS('',1,(#874,#875),.UNSPECIFIED.,.F.,.F.,(2,
2),(0.,13.2336000674402),.UNSPECIFIED.);
#377=B_SPLINE_CURVE_WITH_KNOTS('',1,(#876,#877),.UNSPECIFIED.,.F.,.F.,(2,
2),(0.,6.),.UNSPECIFIED.);
#378=B_SPLINE_CURVE_WITH_KNOTS('',1,(#878,#879),.UNSPECIFIED.,.F.,.F.,(2,
2),(0.,0.719001148770097),.UNSPECIFIED.);
#379=B_SPLINE_CURVE_WITH_KNOTS('',1,(#880,#881),.UNSPECIFIED.,.F.,.F.,(2,
2),(0.,10.8000260406033),.UNSPECIFIED.);
#380=B_SPLINE_CURVE_WITH_KNOTS('',1,(#882,#883),.UNSPECIFIED.,.F.,.F.,(2,
2),(0.,10.8000260406033),.UNSPECIFIED.);
#381=B_SPLINE_CURVE_WITH_KNOTS('',1,(#884,#885),.UNSPECIFIED.,.F.,.F.,(2,
2),(0.,10.8000260406),.UNSPECIFIED.);
#382=B_SPLINE_CURVE_WITH_KNOTS('',1,(#886,#887),.UNSPECIFIED.,.F.,.F.,(2,
2),(0.,10.8000260406),.UNSPECIFIED.);
#383=B_SPLINE_CURVE_WITH_KNOTS('',1,(#888,#889),.UNSPECIFIED.,.F.,.F.,(2,
2),(-2.96955205273661,0.),.UNSPECIFIED.);
#384=B_SPLINE_CURVE_WITH_KNOTS('',1,(#890,#891),.UNSPECIFIED.,.F.,.F.,(2,
2),(-2.96955205273661,0.),.UNSPECIFIED.);
#385=B_SPLINE_CURVE_WITH_KNOTS('',1,(#897,#898),.UNSPECIFIED.,.F.,.F.,(2,
2),(0.,10.8000260406),.UNSPECIFIED.);
#386=B_SPLINE_CURVE_WITH_KNOTS('',1,(#902,#903),.UNSPECIFIED.,.F.,.F.,(2,
2),(0.,10.8000260406),.UNSPECIFIED.);
#387=B_SPLINE_CURVE_WITH_KNOTS('',1,(#912,#913),.UNSPECIFIED.,.F.,.F.,(2,
2),(-2.96955205273661,0.),.UNSPECIFIED.);
#388=B_SPLINE_CURVE_WITH_KNOTS('',1,(#914,#915),.UNSPECIFIED.,.F.,.F.,(2,
2),(-2.96955205273661,0.),.UNSPECIFIED.);
#389=B_SPLINE_CURVE_WITH_KNOTS('',1,(#916,#917),.UNSPECIFIED.,.F.,.F.,(2,
2),(-13.2336085098162,0.),.UNSPECIFIED.);
#390=B_SPLINE_CURVE_WITH_KNOTS('',1,(#918,#919),.UNSPECIFIED.,.F.,.F.,(2,
2),(-13.2336085098164,0.),.UNSPECIFIED.);
#391=(
BOUNDED_CURVE()
B_SPLINE_CURVE(2,(#712,#713,#714),.UNSPECIFIED.,.F.,.F.)
B_SPLINE_CURVE_WITH_KNOTS((3,3),(0.,1.55000000000224),.UNSPECIFIED.)
CURVE()
GEOMETRIC_REPRESENTATION_ITEM()
RATIONAL_B_SPLINE_CURVE((1.,0.707106781185576,1.))
REPRESENTATION_ITEM('')
);
#392=(
BOUNDED_CURVE()
B_SPLINE_CURVE(1,(#715,#716),.UNSPECIFIED.,.F.,.F.)
B_SPLINE_CURVE_WITH_KNOTS((2,2),(0.,10.80000047344),.UNSPECIFIED.)
CURVE()
GEOMETRIC_REPRESENTATION_ITEM()
RATIONAL_B_SPLINE_CURVE((1.,1.))
REPRESENTATION_ITEM('')
);
#393=(
BOUNDED_CURVE()
B_SPLINE_CURVE(2,(#717,#718,#719),.UNSPECIFIED.,.F.,.F.)
B_SPLINE_CURVE_WITH_KNOTS((3,3),(0.,1.55000000000213),.UNSPECIFIED.)
CURVE()
GEOMETRIC_REPRESENTATION_ITEM()
RATIONAL_B_SPLINE_CURVE((1.,0.707106781185621,1.))
REPRESENTATION_ITEM('')
);
#394=(
BOUNDED_CURVE()
B_SPLINE_CURVE(1,(#720,#721),.UNSPECIFIED.,.F.,.F.)
B_SPLINE_CURVE_WITH_KNOTS((2,2),(0.,10.80000047344),.UNSPECIFIED.)
CURVE()
GEOMETRIC_REPRESENTATION_ITEM()
RATIONAL_B_SPLINE_CURVE((1.,1.))
REPRESENTATION_ITEM('')
);
#395=(
BOUNDED_CURVE()
B_SPLINE_CURVE(2,(#722,#723,#724),.UNSPECIFIED.,.F.,.F.)
B_SPLINE_CURVE_WITH_KNOTS((3,3),(0.,4.4318082704399),.UNSPECIFIED.)
CURVE()
GEOMETRIC_REPRESENTATION_ITEM()
RATIONAL_B_SPLINE_CURVE((1.,1.,1.))
REPRESENTATION_ITEM('')
);
#396=(
BOUNDED_CURVE()
B_SPLINE_CURVE(1,(#725,#726),.UNSPECIFIED.,.F.,.F.)
B_SPLINE_CURVE_WITH_KNOTS((2,2),(0.,10.80000047344),.UNSPECIFIED.)
CURVE()
GEOMETRIC_REPRESENTATION_ITEM()
RATIONAL_B_SPLINE_CURVE((1.,1.))
REPRESENTATION_ITEM('')
);
#397=(
BOUNDED_CURVE()
B_SPLINE_CURVE(2,(#727,#728,#729),.UNSPECIFIED.,.F.,.F.)
B_SPLINE_CURVE_WITH_KNOTS((3,3),(0.,4.4318082704399),.UNSPECIFIED.)
CURVE()
GEOMETRIC_REPRESENTATION_ITEM()
RATIONAL_B_SPLINE_CURVE((1.,1.,1.))
REPRESENTATION_ITEM('')
);
#398=(
BOUNDED_CURVE()
B_SPLINE_CURVE(2,(#730,#731,#732),.UNSPECIFIED.,.F.,.F.)
B_SPLINE_CURVE_WITH_KNOTS((3,3),(0.,0.620000000001887),.UNSPECIFIED.)
CURVE()
GEOMETRIC_REPRESENTATION_ITEM()
RATIONAL_B_SPLINE_CURVE((1.,0.707106781185988,1.))
REPRESENTATION_ITEM('')
);
#399=(
BOUNDED_CURVE()
B_SPLINE_CURVE(1,(#733,#734),.UNSPECIFIED.,.F.,.F.)
B_SPLINE_CURVE_WITH_KNOTS((2,2),(0.,10.80000047344),.UNSPECIFIED.)
CURVE()
GEOMETRIC_REPRESENTATION_ITEM()
RATIONAL_B_SPLINE_CURVE((1.,1.))
REPRESENTATION_ITEM('')
);
#400=(
BOUNDED_CURVE()
B_SPLINE_CURVE(2,(#735,#736,#737),.UNSPECIFIED.,.F.,.F.)
B_SPLINE_CURVE_WITH_KNOTS((3,3),(0.,0.620000000001948),.UNSPECIFIED.)
CURVE()
GEOMETRIC_REPRESENTATION_ITEM()
RATIONAL_B_SPLINE_CURVE((1.,0.707106781185616,1.))
REPRESENTATION_ITEM('')
);
#401=(
BOUNDED_CURVE()
B_SPLINE_CURVE(2,(#738,#739,#740),.UNSPECIFIED.,.F.,.F.)
B_SPLINE_CURVE_WITH_KNOTS((3,3),(0.,0.590701841797994),.UNSPECIFIED.)
CURVE()
GEOMETRIC_REPRESENTATION_ITEM()
RATIONAL_B_SPLINE_CURVE((1.,1.,1.))
REPRESENTATION_ITEM('')
);
#402=(
BOUNDED_CURVE()
B_SPLINE_CURVE(1,(#741,#742),.UNSPECIFIED.,.F.,.F.)
B_SPLINE_CURVE_WITH_KNOTS((2,2),(0.,10.80000047344),.UNSPECIFIED.)
CURVE()
GEOMETRIC_REPRESENTATION_ITEM()
RATIONAL_B_SPLINE_CURVE((1.,1.))
REPRESENTATION_ITEM('')
);
#403=(
BOUNDED_CURVE()
B_SPLINE_CURVE(2,(#743,#744,#745),.UNSPECIFIED.,.F.,.F.)
B_SPLINE_CURVE_WITH_KNOTS((3,3),(0.,0.590701841797994),.UNSPECIFIED.)
CURVE()
GEOMETRIC_REPRESENTATION_ITEM()
RATIONAL_B_SPLINE_CURVE((1.,1.,1.))
REPRESENTATION_ITEM('')
);
#404=(
BOUNDED_CURVE()
B_SPLINE_CURVE(2,(#746,#747,#748),.UNSPECIFIED.,.F.,.F.)
B_SPLINE_CURVE_WITH_KNOTS((3,3),(0.,0.299942035218091),.UNSPECIFIED.)
CURVE()
GEOMETRIC_REPRESENTATION_ITEM()
RATIONAL_B_SPLINE_CURVE((1.,0.900192245954968,1.))
REPRESENTATION_ITEM('')
);
#405=(
BOUNDED_CURVE()
B_SPLINE_CURVE(1,(#749,#750),.UNSPECIFIED.,.F.,.F.)
B_SPLINE_CURVE_WITH_KNOTS((2,2),(0.,10.80000047344),.UNSPECIFIED.)
CURVE()
GEOMETRIC_REPRESENTATION_ITEM()
RATIONAL_B_SPLINE_CURVE((1.,1.))
REPRESENTATION_ITEM('')
);
#406=(
BOUNDED_CURVE()
B_SPLINE_CURVE(2,(#751,#752,#753),.UNSPECIFIED.,.F.,.F.)
B_SPLINE_CURVE_WITH_KNOTS((3,3),(0.,0.299942035218102),.UNSPECIFIED.)
CURVE()
GEOMETRIC_REPRESENTATION_ITEM()
RATIONAL_B_SPLINE_CURVE((1.,0.900192245954947,1.))
REPRESENTATION_ITEM('')
);
#407=(
BOUNDED_CURVE()
B_SPLINE_CURVE(2,(#754,#755,#756,#757,#758,#759,#760,#761,#762),
 .UNSPECIFIED.,.F.,.F.)
B_SPLINE_CURVE_WITH_KNOTS((3,2,2,2,3),(35.4950167431558,37.4960856080035,
42.1663590028253,46.8366323976462,48.8377012624794),.UNSPECIFIED.)
CURVE()
GEOMETRIC_REPRESENTATION_ITEM()
RATIONAL_B_SPLINE_CURVE((1.,0.989755867974091,1.17093057964378,0.827972953164814,
1.17093057964378,0.827972953164814,1.17093057964378,0.989755867975146,1.))
REPRESENTATION_ITEM('')
);
#408=(
BOUNDED_CURVE()
B_SPLINE_CURVE(1,(#763,#764),.UNSPECIFIED.,.F.,.F.)
B_SPLINE_CURVE_WITH_KNOTS((2,2),(0.,12.),.UNSPECIFIED.)
CURVE()
GEOMETRIC_REPRESENTATION_ITEM()
RATIONAL_B_SPLINE_CURVE((1.,1.))
REPRESENTATION_ITEM('')
);
#409=(
BOUNDED_CURVE()
B_SPLINE_CURVE(2,(#765,#766,#767,#768,#769,#770,#771,#772,#773),
 .UNSPECIFIED.,.F.,.F.)
B_SPLINE_CURVE_WITH_KNOTS((3,2,2,2,3),(-48.8377012624794,-46.8366323976462,
-42.1663590028253,-37.4960856080035,-35.4950167431558),.UNSPECIFIED.)
CURVE()
GEOMETRIC_REPRESENTATION_ITEM()
RATIONAL_B_SPLINE_CURVE((1.,0.989755867975146,1.17093057964378,0.827972953164814,
1.17093057964378,0.827972953164814,1.17093057964378,0.989755867974091,1.))
REPRESENTATION_ITEM('')
);
#410=(
BOUNDED_CURVE()
B_SPLINE_CURVE(2,(#774,#775,#776),.UNSPECIFIED.,.F.,.F.)
B_SPLINE_CURVE_WITH_KNOTS((3,3),(0.,0.299942035224494),.UNSPECIFIED.)
CURVE()
GEOMETRIC_REPRESENTATION_ITEM()
RATIONAL_B_SPLINE_CURVE((1.,0.900192245946796,1.))
REPRESENTATION_ITEM('')
);
#411=(
BOUNDED_CURVE()
B_SPLINE_CURVE(1,(#777,#778),.UNSPECIFIED.,.F.,.F.)
B_SPLINE_CURVE_WITH_KNOTS((2,2),(0.,10.80000047344),.UNSPECIFIED.)
CURVE()
GEOMETRIC_REPRESENTATION_ITEM()
RATIONAL_B_SPLINE_CURVE((1.,1.))
REPRESENTATION_ITEM('')
);
#412=(
BOUNDED_CURVE()
B_SPLINE_CURVE(2,(#779,#780,#781),.UNSPECIFIED.,.F.,.F.)
B_SPLINE_CURVE_WITH_KNOTS((3,3),(0.,0.299942035224299),.UNSPECIFIED.)
CURVE()
GEOMETRIC_REPRESENTATION_ITEM()
RATIONAL_B_SPLINE_CURVE((1.,0.90019224594748,1.))
REPRESENTATION_ITEM('')
);
#413=(
BOUNDED_CURVE()
B_SPLINE_CURVE(2,(#782,#783,#784),.UNSPECIFIED.,.F.,.F.)
B_SPLINE_CURVE_WITH_KNOTS((3,3),(0.,0.592602976374025),.UNSPECIFIED.)
CURVE()
GEOMETRIC_REPRESENTATION_ITEM()
RATIONAL_B_SPLINE_CURVE((1.,1.,1.))
REPRESENTATION_ITEM('')
);
#414=(
BOUNDED_CURVE()
B_SPLINE_CURVE(1,(#785,#786),.UNSPECIFIED.,.F.,.F.)
B_SPLINE_CURVE_WITH_KNOTS((2,2),(0.,10.80000047344),.UNSPECIFIED.)
CURVE()
GEOMETRIC_REPRESENTATION_ITEM()
RATIONAL_B_SPLINE_CURVE((1.,1.))
REPRESENTATION_ITEM('')
);
#415=(
BOUNDED_CURVE()
B_SPLINE_CURVE(2,(#787,#788,#789),.UNSPECIFIED.,.F.,.F.)
B_SPLINE_CURVE_WITH_KNOTS((3,3),(0.,0.592602976374025),.UNSPECIFIED.)
CURVE()
GEOMETRIC_REPRESENTATION_ITEM()
RATIONAL_B_SPLINE_CURVE((1.,1.,1.))
REPRESENTATION_ITEM('')
);
#416=(
BOUNDED_CURVE()
B_SPLINE_CURVE(2,(#790,#791,#792),.UNSPECIFIED.,.F.,.F.)
B_SPLINE_CURVE_WITH_KNOTS((3,3),(0.,0.620000000000307),.UNSPECIFIED.)
CURVE()
GEOMETRIC_REPRESENTATION_ITEM()
RATIONAL_B_SPLINE_CURVE((1.,0.707106781186069,1.))
REPRESENTATION_ITEM('')
);
#417=(
BOUNDED_CURVE()
B_SPLINE_CURVE(1,(#793,#794),.UNSPECIFIED.,.F.,.F.)
B_SPLINE_CURVE_WITH_KNOTS((2,2),(0.,10.80000047344),.UNSPECIFIED.)
CURVE()
GEOMETRIC_REPRESENTATION_ITEM()
RATIONAL_B_SPLINE_CURVE((1.,1.))
REPRESENTATION_ITEM('')
);
#418=(
BOUNDED_CURVE()
B_SPLINE_CURVE(2,(#795,#796,#797),.UNSPECIFIED.,.F.,.F.)
B_SPLINE_CURVE_WITH_KNOTS((3,3),(0.,0.620000000000093),.UNSPECIFIED.)
CURVE()
GEOMETRIC_REPRESENTATION_ITEM()
RATIONAL_B_SPLINE_CURVE((1.,0.707106781186223,1.))
REPRESENTATION_ITEM('')
);
#419=(
BOUNDED_CURVE()
B_SPLINE_CURVE(2,(#798,#799,#800),.UNSPECIFIED.,.F.,.F.)
B_SPLINE_CURVE_WITH_KNOTS((3,3),(0.,4.4318086782294),.UNSPECIFIED.)
CURVE()
GEOMETRIC_REPRESENTATION_ITEM()
RATIONAL_B_SPLINE_CURVE((1.,1.,1.))
REPRESENTATION_ITEM('')
);
#420=(
BOUNDED_CURVE()
B_SPLINE_CURVE(1,(#801,#802),.UNSPECIFIED.,.F.,.F.)
B_SPLINE_CURVE_WITH_KNOTS((2,2),(0.,10.80000047344),.UNSPECIFIED.)
CURVE()
GEOMETRIC_REPRESENTATION_ITEM()
RATIONAL_B_SPLINE_CURVE((1.,1.))
REPRESENTATION_ITEM('')
);
#421=(
BOUNDED_CURVE()
B_SPLINE_CURVE(2,(#803,#804,#805),.UNSPECIFIED.,.F.,.F.)
B_SPLINE_CURVE_WITH_KNOTS((3,3),(0.,4.4318086782294),.UNSPECIFIED.)
CURVE()
GEOMETRIC_REPRESENTATION_ITEM()
RATIONAL_B_SPLINE_CURVE((1.,1.,1.))
REPRESENTATION_ITEM('')
);
#422=(
BOUNDED_CURVE()
B_SPLINE_CURVE(2,(#806,#807,#808),.UNSPECIFIED.,.F.,.F.)
B_SPLINE_CURVE_WITH_KNOTS((3,3),(0.,1.55000000000008),.UNSPECIFIED.)
CURVE()
GEOMETRIC_REPRESENTATION_ITEM()
RATIONAL_B_SPLINE_CURVE((1.,0.707106781186546,1.))
REPRESENTATION_ITEM('')
);
#423=(
BOUNDED_CURVE()
B_SPLINE_CURVE(1,(#809,#810),.UNSPECIFIED.,.F.,.F.)
B_SPLINE_CURVE_WITH_KNOTS((2,2),(0.,10.80000047344),.UNSPECIFIED.)
CURVE()
GEOMETRIC_REPRESENTATION_ITEM()
RATIONAL_B_SPLINE_CURVE((1.,1.))
REPRESENTATION_ITEM('')
);
#424=(
BOUNDED_CURVE()
B_SPLINE_CURVE(2,(#811,#812,#813),.UNSPECIFIED.,.F.,.F.)
B_SPLINE_CURVE_WITH_KNOTS((3,3),(0.,1.5499999999999),.UNSPECIFIED.)
CURVE()
GEOMETRIC_REPRESENTATION_ITEM()
RATIONAL_B_SPLINE_CURVE((1.,0.707106781186643,1.))
REPRESENTATION_ITEM('')
);
#425=(
BOUNDED_CURVE()
B_SPLINE_CURVE(2,(#814,#815,#816),.UNSPECIFIED.,.F.,.F.)
B_SPLINE_CURVE_WITH_KNOTS((3,3),(0.,4.29318521737298),.UNSPECIFIED.)
CURVE()
GEOMETRIC_REPRESENTATION_ITEM()
RATIONAL_B_SPLINE_CURVE((1.,1.,1.))
REPRESENTATION_ITEM('')
);
#426=(
BOUNDED_CURVE()
B_SPLINE_CURVE(1,(#817,#818),.UNSPECIFIED.,.F.,.F.)
B_SPLINE_CURVE_WITH_KNOTS((2,2),(0.,10.80000047344),.UNSPECIFIED.)
CURVE()
GEOMETRIC_REPRESENTATION_ITEM()
RATIONAL_B_SPLINE_CURVE((1.,1.))
REPRESENTATION_ITEM('')
);
#427=(
BOUNDED_CURVE()
B_SPLINE_CURVE(2,(#819,#820,#821),.UNSPECIFIED.,.F.,.F.)
B_SPLINE_CURVE_WITH_KNOTS((3,3),(0.,4.29318521737298),.UNSPECIFIED.)
CURVE()
GEOMETRIC_REPRESENTATION_ITEM()
RATIONAL_B_SPLINE_CURVE((1.,1.,1.))
REPRESENTATION_ITEM('')
);
#428=(
BOUNDED_CURVE()
B_SPLINE_CURVE(2,(#822,#823,#824),.UNSPECIFIED.,.F.,.F.)
B_SPLINE_CURVE_WITH_KNOTS((3,3),(0.,4.29318521737298),.UNSPECIFIED.)
CURVE()
GEOMETRIC_REPRESENTATION_ITEM()
RATIONAL_B_SPLINE_CURVE((1.,1.,1.))
REPRESENTATION_ITEM('')
);
#429=(
BOUNDED_CURVE()
B_SPLINE_CURVE(2,(#825,#826,#827),.UNSPECIFIED.,.F.,.F.)
B_SPLINE_CURVE_WITH_KNOTS((3,3),(0.,4.29318521737298),.UNSPECIFIED.)
CURVE()
GEOMETRIC_REPRESENTATION_ITEM()
RATIONAL_B_SPLINE_CURVE((1.,1.,1.))
REPRESENTATION_ITEM('')
);
#430=(
BOUNDED_CURVE()
B_SPLINE_CURVE(1,(#828,#829),.UNSPECIFIED.,.F.,.F.)
B_SPLINE_CURVE_WITH_KNOTS((2,2),(0.,10.80000047344),.UNSPECIFIED.)
CURVE()
GEOMETRIC_REPRESENTATION_ITEM()
RATIONAL_B_SPLINE_CURVE((1.,1.))
REPRESENTATION_ITEM('')
);
#431=(
BOUNDED_CURVE()
B_SPLINE_CURVE(2,(#830,#831,#832),.UNSPECIFIED.,.F.,.F.)
B_SPLINE_CURVE_WITH_KNOTS((3,3),(0.,14.1336165409),.UNSPECIFIED.)
CURVE()
GEOMETRIC_REPRESENTATION_ITEM()
RATIONAL_B_SPLINE_CURVE((1.,1.,1.))
REPRESENTATION_ITEM('')
);
#432=(
BOUNDED_CURVE()
B_SPLINE_CURVE(2,(#833,#834,#835),.UNSPECIFIED.,.F.,.F.)
B_SPLINE_CURVE_WITH_KNOTS((3,3),(0.,14.1336165409),.UNSPECIFIED.)
CURVE()
GEOMETRIC_REPRESENTATION_ITEM()
RATIONAL_B_SPLINE_CURVE((1.,1.,1.))
REPRESENTATION_ITEM('')
);
#433=(
BOUNDED_CURVE()
B_SPLINE_CURVE(1,(#892,#893),.UNSPECIFIED.,.F.,.F.)
B_SPLINE_CURVE_WITH_KNOTS((2,2),(0.,10.8000260406),.UNSPECIFIED.)
CURVE()
GEOMETRIC_REPRESENTATION_ITEM()
RATIONAL_B_SPLINE_CURVE((1.,1.))
REPRESENTATION_ITEM('')
);
#434=(
BOUNDED_CURVE()
B_SPLINE_CURVE(2,(#894,#895,#896),.UNSPECIFIED.,.F.,.F.)
B_SPLINE_CURVE_WITH_KNOTS((3,3),(-3.28157763648283,0.),.UNSPECIFIED.)
CURVE()
GEOMETRIC_REPRESENTATION_ITEM()
RATIONAL_B_SPLINE_CURVE((1.,0.773118260264012,1.))
REPRESENTATION_ITEM('')
);
#435=(
BOUNDED_CURVE()
B_SPLINE_CURVE(2,(#899,#900,#901),.UNSPECIFIED.,.F.,.F.)
B_SPLINE_CURVE_WITH_KNOTS((3,3),(-3.28157763648445,0.),.UNSPECIFIED.)
CURVE()
GEOMETRIC_REPRESENTATION_ITEM()
RATIONAL_B_SPLINE_CURVE((1.,0.773118260263636,1.))
REPRESENTATION_ITEM('')
);
#436=(
BOUNDED_CURVE()
B_SPLINE_CURVE(2,(#904,#905,#906),.UNSPECIFIED.,.F.,.F.)
B_SPLINE_CURVE_WITH_KNOTS((3,3),(-3.28157763648285,0.),.UNSPECIFIED.)
CURVE()
GEOMETRIC_REPRESENTATION_ITEM()
RATIONAL_B_SPLINE_CURVE((1.,0.773118260264066,1.))
REPRESENTATION_ITEM('')
);
#437=(
BOUNDED_CURVE()
B_SPLINE_CURVE(1,(#907,#908),.UNSPECIFIED.,.F.,.F.)
B_SPLINE_CURVE_WITH_KNOTS((2,2),(0.,10.8000260406),.UNSPECIFIED.)
CURVE()
GEOMETRIC_REPRESENTATION_ITEM()
RATIONAL_B_SPLINE_CURVE((1.,1.))
REPRESENTATION_ITEM('')
);
#438=(
BOUNDED_CURVE()
B_SPLINE_CURVE(2,(#909,#910,#911),.UNSPECIFIED.,.F.,.F.)
B_SPLINE_CURVE_WITH_KNOTS((3,3),(-3.28157763648454,0.),.UNSPECIFIED.)
CURVE()
GEOMETRIC_REPRESENTATION_ITEM()
RATIONAL_B_SPLINE_CURVE((1.,0.773118260263666,1.))
REPRESENTATION_ITEM('')
);
#439=VERTEX_POINT('',#660);
#440=VERTEX_POINT('',#661);
#441=VERTEX_POINT('',#662);
#442=VERTEX_POINT('',#663);
#443=VERTEX_POINT('',#664);
#444=VERTEX_POINT('',#665);
#445=VERTEX_POINT('',#666);
#446=VERTEX_POINT('',#667);
#447=VERTEX_POINT('',#668);
#448=VERTEX_POINT('',#669);
#449=VERTEX_POINT('',#670);
#450=VERTEX_POINT('',#671);
#451=VERTEX_POINT('',#672);
#452=VERTEX_POINT('',#673);
#453=VERTEX_POINT('',#674);
#454=VERTEX_POINT('',#675);
#455=VERTEX_POINT('',#676);
#456=VERTEX_POINT('',#677);
#457=VERTEX_POINT('',#678);
#458=VERTEX_POINT('',#679);
#459=VERTEX_POINT('',#680);
#460=VERTEX_POINT('',#681);
#461=VERTEX_POINT('',#682);
#462=VERTEX_POINT('',#683);
#463=VERTEX_POINT('',#684);
#464=VERTEX_POINT('',#685);
#465=VERTEX_POINT('',#686);
#466=VERTEX_POINT('',#687);
#467=VERTEX_POINT('',#688);
#468=VERTEX_POINT('',#689);
#469=VERTEX_POINT('',#690);
#470=VERTEX_POINT('',#691);
#471=VERTEX_POINT('',#692);
#472=VERTEX_POINT('',#693);
#473=VERTEX_POINT('',#694);
#474=VERTEX_POINT('',#695);
#475=VERTEX_POINT('',#696);
#476=VERTEX_POINT('',#697);
#477=VERTEX_POINT('',#698);
#478=VERTEX_POINT('',#699);
#479=VERTEX_POINT('',#700);
#480=VERTEX_POINT('',#701);
#481=VERTEX_POINT('',#702);
#482=VERTEX_POINT('',#703);
#483=VERTEX_POINT('',#704);
#484=VERTEX_POINT('',#705);
#485=VERTEX_POINT('',#706);
#486=VERTEX_POINT('',#707);
#487=VERTEX_POINT('',#708);
#488=VERTEX_POINT('',#709);
#489=VERTEX_POINT('',#710);
#490=VERTEX_POINT('',#711);
#491=(
BOUNDED_SURFACE()
B_SPLINE_SURFACE(2,1,((#616,#617),(#618,#619),(#620,#621),(#622,#623),(#624,
#625),(#626,#627),(#628,#629),(#630,#631),(#632,#633)),.UNSPECIFIED.,.F.,
 .F.,.F.)
B_SPLINE_SURFACE_WITH_KNOTS((3,2,2,2,3),(2,2),(35.4950167431558,37.8010727186648,
42.166359002824,46.5316452869831,48.8377012624794),(0.,12.),
 .UNSPECIFIED.)
GEOMETRIC_REPRESENTATION_ITEM()
RATIONAL_B_SPLINE_SURFACE(((1.,1.),(0.989755867974091,0.989755867974091),
(1.17093057964378,1.17093057964378),(0.827972953164814,0.827972953164814),
(1.17093057964378,1.17093057964378),(0.827972953164814,0.827972953164814),
(1.17093057964378,1.17093057964378),(0.989755867975146,0.989755867975146),
(1.,1.)))
REPRESENTATION_ITEM('')
SURFACE()
);
#492=PLANE('',#544);
#493=PLANE('',#546);
#494=PLANE('',#549);
#495=PLANE('',#551);
#496=PLANE('',#553);
#497=PLANE('',#554);
#498=PLANE('',#555);
#499=PLANE('',#556);
#500=PLANE('',#557);
#501=PLANE('',#558);
#502=PLANE('',#559);
#503=PLANE('',#560);
#504=PLANE('',#561);
#505=PLANE('',#562);
#506=PLANE('',#563);
#507=PLANE('',#564);
#508=PLANE('',#565);
#509=PLANE('',#566);
#510=PLANE('',#567);
#511=PLANE('',#569);
#512=PLANE('',#571);
#513=PLANE('',#572);
#514=PLANE('',#573);
#515=CYLINDRICAL_SURFACE('',#543,0.775000000000006);
#516=CYLINDRICAL_SURFACE('',#545,0.310000000000002);
#517=CYLINDRICAL_SURFACE('',#547,0.309999999999075);
#518=CYLINDRICAL_SURFACE('',#548,0.309999999999974);
#519=CYLINDRICAL_SURFACE('',#550,0.309999999998723);
#520=CYLINDRICAL_SURFACE('',#552,0.775000000000084);
#521=CYLINDRICAL_SURFACE('',#568,1.99999999999952);
#522=CYLINDRICAL_SURFACE('',#570,2.);
#523=SHAPE_DEFINITION_REPRESENTATION(#524,#541);
#524=PRODUCT_DEFINITION_SHAPE('Document','',#526);
#525=PRODUCT_DEFINITION_CONTEXT('3D Mechanical Parts',#530,'design');
#526=PRODUCT_DEFINITION('A','First version',#527,#525);
#527=PRODUCT_DEFINITION_FORMATION_WITH_SPECIFIED_SOURCE('A',
'First version',#532,.MADE.);
#528=PRODUCT_RELATED_PRODUCT_CATEGORY('tool','tool',(#532));
#529=APPLICATION_PROTOCOL_DEFINITION('Draft International Standard',
'automotive_design',1999,#530);
#530=APPLICATION_CONTEXT(
'data for automotive mechanical design processes');
#531=PRODUCT_CONTEXT('3D Mechanical Parts',#530,'mechanical');
#532=PRODUCT('Document','Document','',(#531));
#533=(
LENGTH_UNIT()
NAMED_UNIT(*)
SI_UNIT(.MILLI.,.METRE.)
);
#534=(
NAMED_UNIT(*)
PLANE_ANGLE_UNIT()
SI_UNIT($,.RADIAN.)
);
#535=DIMENSIONAL_EXPONENTS(0.,0.,0.,0.,0.,0.,0.);
#536=PLANE_ANGLE_MEASURE_WITH_UNIT(PLANE_ANGLE_MEASURE(0.01745329252),#534);
#537=(
CONVERSION_BASED_UNIT('DEGREES',#536)
NAMED_UNIT(#535)
PLANE_ANGLE_UNIT()
);
#538=(
NAMED_UNIT(*)
SI_UNIT($,.STERADIAN.)
SOLID_ANGLE_UNIT()
);
#539=UNCERTAINTY_MEASURE_WITH_UNIT(LENGTH_MEASURE(0.01),#533,
'DISTANCE_ACCURACY_VALUE',
'Maximum model space distance between geometric entities at asserted c
onnectivities');
#540=(
GEOMETRIC_REPRESENTATION_CONTEXT(3)
GLOBAL_UNCERTAINTY_ASSIGNED_CONTEXT((#539))
GLOBAL_UNIT_ASSIGNED_CONTEXT((#538,#537,#533))
REPRESENTATION_CONTEXT('ID1','3D')
);
#541=SHAPE_REPRESENTATION('Document',(#542,#574),#540);
#542=AXIS2_PLACEMENT_3D('',#610,#575,#576);
#543=AXIS2_PLACEMENT_3D('',#611,#577,$);
#544=AXIS2_PLACEMENT_3D('',#612,#578,$);
#545=AXIS2_PLACEMENT_3D('',#613,#579,$);
#546=AXIS2_PLACEMENT_3D('',#614,#580,$);
#547=AXIS2_PLACEMENT_3D('',#615,#581,$);
#548=AXIS2_PLACEMENT_3D('',#634,#582,$);
#549=AXIS2_PLACEMENT_3D('',#635,#583,$);
#550=AXIS2_PLACEMENT_3D('',#636,#584,$);
#551=AXIS2_PLACEMENT_3D('',#637,#585,$);
#552=AXIS2_PLACEMENT_3D('',#638,#586,$);
#553=AXIS2_PLACEMENT_3D('',#639,#587,$);
#554=AXIS2_PLACEMENT_3D('',#640,#588,$);
#555=AXIS2_PLACEMENT_3D('',#641,#589,$);
#556=AXIS2_PLACEMENT_3D('',#642,#590,$);
#557=AXIS2_PLACEMENT_3D('',#643,#591,$);
#558=AXIS2_PLACEMENT_3D('',#644,#592,$);
#559=AXIS2_PLACEMENT_3D('',#645,#593,$);
#560=AXIS2_PLACEMENT_3D('',#646,#594,$);
#561=AXIS2_PLACEMENT_3D('',#647,#595,$);
#562=AXIS2_PLACEMENT_3D('',#648,#596,$);
#563=AXIS2_PLACEMENT_3D('',#649,#597,$);
#564=AXIS2_PLACEMENT_3D('',#650,#598,$);
#565=AXIS2_PLACEMENT_3D('',#651,#599,$);
#566=AXIS2_PLACEMENT_3D('',#652,#600,$);
#567=AXIS2_PLACEMENT_3D('',#653,#601,$);
#568=AXIS2_PLACEMENT_3D('',#654,#602,$);
#569=AXIS2_PLACEMENT_3D('',#655,#603,$);
#570=AXIS2_PLACEMENT_3D('',#656,#604,$);
#571=AXIS2_PLACEMENT_3D('',#657,#605,$);
#572=AXIS2_PLACEMENT_3D('',#658,#606,$);
#573=AXIS2_PLACEMENT_3D('',#659,#607,$);
#574=AXIS2_PLACEMENT_3D('',#920,#608,#609);
#575=DIRECTION('',(0.,0.,1.));
#576=DIRECTION('',(1.,0.,0.));
#577=DIRECTION('',(-7.33463469172091E-14,-1.,-1.68115206440531E-28));
#578=DIRECTION('',(0.,0.,1.));
#579=DIRECTION('',(-1.83365867293105E-13,-1.,-1.0507200402538E-27));
#580=DIRECTION('',(-1.,0.,0.));
#581=DIRECTION('',(6.46364682209541E-12,-1.,3.07137827716694E-12));
#582=DIRECTION('',(-1.83365867293104E-13,-1.,0.));
#583=DIRECTION('',(1.,0.,0.));
#584=DIRECTION('',(-1.83365867293597E-12,-1.,-1.65029280564308E-12));
#585=DIRECTION('',(-0.000428974873429411,1.61927645698778E-18,0.999999907990275));
#586=DIRECTION('',(6.60117122254231E-13,-1.,-7.33463469171512E-13));
#587=DIRECTION('',(-1.,0.,0.));
#588=DIRECTION('',(1.,0.,0.));
#589=DIRECTION('',(0.,1.,0.));
#590=DIRECTION('',(0.,-1.,0.));
#591=DIRECTION('',(-1.,0.,0.));
#592=DIRECTION('',(0.,1.,0.));
#593=DIRECTION('',(1.,0.,0.));
#594=DIRECTION('',(0.,-1.,0.));
#595=DIRECTION('',(0.,1.,0.));
#596=DIRECTION('',(0.999999999999694,-7.81699469432075E-7,0.));
#597=DIRECTION('',(0.,-1.,0.));
#598=DIRECTION('',(-0.999999999999694,-7.81699456275931E-7,0.));
#599=DIRECTION('',(0.,0.,-1.));
#600=DIRECTION('',(0.,0.,-1.));
#601=DIRECTION('',(-0.980718910745043,-3.74526379856586E-16,-0.195423688704968));
#602=DIRECTION('',(-2.77111666946456E-13,-1.,-2.48689957516096E-13));
#603=DIRECTION('',(0.,0.,-1.));
#604=DIRECTION('',(-2.84217094304095E-14,-1.,0.));
#605=DIRECTION('',(0.980718910745042,0.,-0.195423688704975));
#606=DIRECTION('',(0.,0.,1.));
#607=DIRECTION('',(0.,0.,1.));
#608=DIRECTION('',(0.,0.,1.));
#609=DIRECTION('',(1.,0.,0.));
#610=CARTESIAN_POINT('',(0.,0.,0.));
#611=CARTESIAN_POINT('',(-11.1933922956798,-178.580623636033,209.098708777878));
#612=CARTESIAN_POINT('',(-16.1883813931634,-185.180623920097,209.873708777878));
#613=CARTESIAN_POINT('',(-15.6252005661196,-178.580623636033,209.563708777878));
#614=CARTESIAN_POINT('',(-15.9352005661195,-171.980623351969,208.193936751899));
#615=CARTESIAN_POINT('',(-15.625200566129,-178.580623636031,208.97300693608));
#616=CARTESIAN_POINT('',(-15.8176151355195,-173.180623399313,208.729950083709));
#617=CARTESIAN_POINT('',(-15.8176151355195,-183.980623872753,208.729950083709));
#618=CARTESIAN_POINT('',(-15.0081995552294,-173.180623399313,208.089180861095));
#619=CARTESIAN_POINT('',(-15.0081995552294,-183.980623872753,208.089180861095));
#620=CARTESIAN_POINT('',(-15.0081995552293,-173.180623399313,207.137393934299));
#621=CARTESIAN_POINT('',(-15.0081995552293,-183.980623872753,207.137393934299));
#622=CARTESIAN_POINT('',(-15.0081995552294,-173.180623399313,204.98364757488));
#623=CARTESIAN_POINT('',(-15.0081995552294,-183.980623872753,204.98364757488));
#624=CARTESIAN_POINT('',(-17.4852005661195,-173.180623399313,204.98364757488));
#625=CARTESIAN_POINT('',(-17.4852005661195,-183.980623872753,204.98364757488));
#626=CARTESIAN_POINT('',(-19.9622015770095,-173.180623399313,204.98364757488));
#627=CARTESIAN_POINT('',(-19.9622015770095,-183.980623872753,204.98364757488));
#628=CARTESIAN_POINT('',(-19.9622015770094,-173.180623399313,207.137393934299));
#629=CARTESIAN_POINT('',(-19.9622015770094,-183.980623872753,207.137393934299));
#630=CARTESIAN_POINT('',(-19.9622015770095,-173.180623399313,208.089180861089));
#631=CARTESIAN_POINT('',(-19.9622015770095,-183.980623872753,208.089180861089));
#632=CARTESIAN_POINT('',(-19.1527859967294,-173.180623399313,208.729950083702));
#633=CARTESIAN_POINT('',(-19.1527859967294,-183.980623872753,208.729950083702));
#634=CARTESIAN_POINT('',(-19.3452005661197,-178.580623636033,208.973006936071));
#635=CARTESIAN_POINT('',(-19.0352005661194,-185.180623920097,208.193746638434));
#636=CARTESIAN_POINT('',(-19.3452005661199,-178.580623636032,209.565609912446));
#637=CARTESIAN_POINT('',(-24.3402411185232,-185.180623920097,209.873467165359));
#638=CARTESIAN_POINT('',(-23.7770088365798,-178.580623636033,209.098708777878));
#639=CARTESIAN_POINT('',(-24.5520088365794,-171.980623351969,204.256205038768));
#640=CARTESIAN_POINT('',(-10.4183922956794,-185.180623920097,204.256205038768));
#641=CARTESIAN_POINT('',(-26.0853704906697,-173.180623399313,204.178514925311));
#642=CARTESIAN_POINT('',(-26.0853704906697,-183.980623872753,210.502618547639));
#643=CARTESIAN_POINT('',(-24.5520088365794,-171.980609290031,203.212243781614));
#644=CARTESIAN_POINT('',(-26.0853704906694,-173.180623399313,203.212243781614));
#645=CARTESIAN_POINT('',(-10.4183922956794,-185.180625198455,203.212243781614));
#646=CARTESIAN_POINT('',(-26.0853704906694,-183.980623872753,205.604912631313));
#647=CARTESIAN_POINT('',(-41.9657007024416,-173.180597832153,197.291632852422));
#648=CARTESIAN_POINT('',(2.81520683371451,-185.180626570617,197.291632852422));
#649=CARTESIAN_POINT('',(-41.9656905715976,-183.980623872753,204.731632852422));
#650=CARTESIAN_POINT('',(-37.7856182844353,-171.980595134289,197.291632852422));
#651=CARTESIAN_POINT('',(-36.2747067961355,-185.180626476813,198.011632852422));
#652=CARTESIAN_POINT('',(3.60711717324462,-185.180626476813,198.011632852422));
#653=CARTESIAN_POINT('',(1.43027219042121,-171.980595228093,201.35357412712));
#654=CARTESIAN_POINT('',(-0.44555201455712,-178.580610852453,200.533081329431));
#655=CARTESIAN_POINT('',(3.08237769589863,-185.180626476813,202.533081329574));
#656=CARTESIAN_POINT('',(-34.5248491178198,-178.580610852453,200.533081329575));
#657=CARTESIAN_POINT('',(-37.1522213718788,-171.980595228093,197.581987432286));
#658=CARTESIAN_POINT('',(-11.8617531466604,-185.180626476813,204.011632852422));
#659=CARTESIAN_POINT('',(-39.2289781973706,-185.180626476813,204.011632852422));
#660=CARTESIAN_POINT('',(-10.4183922956794,-173.180623399313,209.098708777878));
#661=CARTESIAN_POINT('',(-11.1933922956795,-173.180623399313,209.873708777878));
#662=CARTESIAN_POINT('',(-11.1933922956795,-183.980623872753,209.873708777878));
#663=CARTESIAN_POINT('',(-10.4183922956794,-183.980623872753,209.098708777878));
#664=CARTESIAN_POINT('',(-15.6252005661194,-173.180623399313,209.873708777878));
#665=CARTESIAN_POINT('',(-15.6252005661194,-183.980623872753,209.873708777878));
#666=CARTESIAN_POINT('',(-15.9352005661198,-173.180623399313,209.563708777877));
#667=CARTESIAN_POINT('',(-15.9352005661195,-183.980623872753,209.563708777877));
#668=CARTESIAN_POINT('',(-15.9352005661195,-173.180623399313,208.973006936079));
#669=CARTESIAN_POINT('',(-15.9352005661195,-183.980623872753,208.973006936079));
#670=CARTESIAN_POINT('',(-15.8176151355195,-173.180623399313,208.729950083709));
#671=CARTESIAN_POINT('',(-15.8176151355195,-183.980623872753,208.729950083709));
#672=CARTESIAN_POINT('',(-19.1527859967294,-173.180623399313,208.729950083702));
#673=CARTESIAN_POINT('',(-19.1527859967294,-183.980623872753,208.729950083702));
#674=CARTESIAN_POINT('',(-19.0352005661197,-173.180623399313,208.973006936071));
#675=CARTESIAN_POINT('',(-19.0352005661197,-183.980623872753,208.973006936071));
#676=CARTESIAN_POINT('',(-19.0352005661197,-173.180623399313,209.565609912445));
#677=CARTESIAN_POINT('',(-19.0352005661197,-183.980623872753,209.565609912445));
#678=CARTESIAN_POINT('',(-19.3452005661196,-173.180623399313,209.875609912445));
#679=CARTESIAN_POINT('',(-19.3452005661196,-183.980623872753,209.875609912445));
#680=CARTESIAN_POINT('',(-23.7770088365795,-173.180623399313,209.873708777878));
#681=CARTESIAN_POINT('',(-23.7770088365795,-183.980623872753,209.873708777878));
#682=CARTESIAN_POINT('',(-24.5520088365796,-173.180623399313,209.098708777878));
#683=CARTESIAN_POINT('',(-24.5520088365796,-183.980623872753,209.098708777878));
#684=CARTESIAN_POINT('',(-24.5520088365794,-173.180623399313,204.805523560505));
#685=CARTESIAN_POINT('',(-24.5520088365794,-183.980623872753,204.805523560505));
#686=CARTESIAN_POINT('',(-10.4183922956794,-173.180623399313,204.805523560505));
#687=CARTESIAN_POINT('',(-10.4183922956794,-183.980623872753,204.805523560505));
#688=CARTESIAN_POINT('',(-24.5520088365794,-183.980623872753,204.011632852422));
#689=CARTESIAN_POINT('',(-24.5520088365794,-173.180610615733,204.011632852422));
#690=CARTESIAN_POINT('',(-10.4183922956794,-173.180610615733,204.011632852422));
#691=CARTESIAN_POINT('',(-10.4183922956794,-183.980623872753,204.011632852422));
#692=CARTESIAN_POINT('',(-0.445552014439379,-173.180597832153,202.533081329574));
#693=CARTESIAN_POINT('',(-34.5248491178194,-173.180597832153,202.533081329574));
#694=CARTESIAN_POINT('',(-36.4862869393095,-173.180597832153,200.923928706984));
#695=CARTESIAN_POINT('',(-37.0666077552495,-173.180597832153,198.011632852422));
#696=CARTESIAN_POINT('',(-37.7856173463896,-173.180597832153,198.011632852422));
#697=CARTESIAN_POINT('',(-37.7856173463896,-173.180597832153,204.011632852422));
#698=CARTESIAN_POINT('',(2.81521621413061,-173.180597832153,204.011632852422));
#699=CARTESIAN_POINT('',(2.81521621413061,-173.180597832153,198.011632852422));
#700=CARTESIAN_POINT('',(2.09620662299051,-173.180597832153,198.011632852422));
#701=CARTESIAN_POINT('',(1.5158858070505,-173.180597832153,200.923928706984));
#702=CARTESIAN_POINT('',(2.81520777176059,-183.980623872753,204.011632852422));
#703=CARTESIAN_POINT('',(2.81520777176059,-183.980623872753,198.011632852422));
#704=CARTESIAN_POINT('',(-34.5248491178194,-183.980623872753,202.533081329574));
#705=CARTESIAN_POINT('',(-0.445552014439379,-183.980623872753,202.533081329574));
#706=CARTESIAN_POINT('',(1.5158858070505,-183.980623872753,200.923928706984));
#707=CARTESIAN_POINT('',(2.09620662299051,-183.980623872753,198.011632852422));
#708=CARTESIAN_POINT('',(-37.7856089040196,-183.980623872753,204.011632852422));
#709=CARTESIAN_POINT('',(-37.7856089040196,-183.980623872753,198.011632852422));
#710=CARTESIAN_POINT('',(-37.0666077552495,-183.980623872753,198.011632852422));
#711=CARTESIAN_POINT('',(-36.4862869393095,-183.980623872753,200.923928706984));
#712=CARTESIAN_POINT('',(-10.4183922956794,-173.180623399313,209.098708777878));
#713=CARTESIAN_POINT('',(-10.4183922956784,-173.180623399314,209.873708777879));
#714=CARTESIAN_POINT('',(-11.1933922956795,-173.180623399313,209.873708777878));
#715=CARTESIAN_POINT('',(-11.1933922956795,-173.180623399313,209.873708777878));
#716=CARTESIAN_POINT('',(-11.1933922956795,-183.980623872753,209.873708777878));
#717=CARTESIAN_POINT('',(-11.1933922956795,-183.980623872753,209.873708777878));
#718=CARTESIAN_POINT('',(-10.4183922956784,-183.980623872754,209.873708777879));
#719=CARTESIAN_POINT('',(-10.4183922956794,-183.980623872753,209.098708777878));
#720=CARTESIAN_POINT('',(-10.4183922956794,-183.980623872753,209.098708777878));
#721=CARTESIAN_POINT('',(-10.4183922956794,-173.180623399313,209.098708777878));
#722=CARTESIAN_POINT('',(-11.1933922956795,-173.180623399313,209.873708777878));
#723=CARTESIAN_POINT('',(-13.4092964308994,-173.180623399313,209.873708777878));
#724=CARTESIAN_POINT('',(-15.6252005661194,-173.180623399313,209.873708777878));
#725=CARTESIAN_POINT('',(-15.6252005661194,-173.180623399313,209.873708777878));
#726=CARTESIAN_POINT('',(-15.6252005661194,-183.980623872753,209.873708777878));
#727=CARTESIAN_POINT('',(-15.6252005661194,-183.980623872753,209.873708777878));
#728=CARTESIAN_POINT('',(-13.4092964308994,-183.980623872753,209.873708777878));
#729=CARTESIAN_POINT('',(-11.1933922956795,-183.980623872753,209.873708777878));
#730=CARTESIAN_POINT('',(-15.6252005661194,-173.180623399313,209.873708777878));
#731=CARTESIAN_POINT('',(-15.9352005661203,-173.180623399314,209.873708777878));
#732=CARTESIAN_POINT('',(-15.9352005661198,-173.180623399313,209.563708777877));
#733=CARTESIAN_POINT('',(-15.9352005661198,-173.180623399313,209.563708777877));
#734=CARTESIAN_POINT('',(-15.9352005661195,-183.980623872753,209.563708777877));
#735=CARTESIAN_POINT('',(-15.9352005661195,-183.980623872753,209.563708777877));
#736=CARTESIAN_POINT('',(-15.9352005661203,-183.980623872753,209.873708777878));
#737=CARTESIAN_POINT('',(-15.6252005661194,-183.980623872753,209.873708777878));
#738=CARTESIAN_POINT('',(-15.9352005661198,-173.180623399313,209.563708777877));
#739=CARTESIAN_POINT('',(-15.9352005661196,-173.180623399313,209.268357856978));
#740=CARTESIAN_POINT('',(-15.9352005661195,-173.180623399313,208.973006936079));
#741=CARTESIAN_POINT('',(-15.9352005661195,-173.180623399313,208.973006936079));
#742=CARTESIAN_POINT('',(-15.9352005661195,-183.980623872753,208.973006936079));
#743=CARTESIAN_POINT('',(-15.9352005661195,-183.980623872753,208.973006936079));
#744=CARTESIAN_POINT('',(-15.9352005661195,-183.980623872753,209.268357856978));
#745=CARTESIAN_POINT('',(-15.9352005661195,-183.980623872753,209.563708777877));
#746=CARTESIAN_POINT('',(-15.9352005661195,-173.180623399313,208.973006936079));
#747=CARTESIAN_POINT('',(-15.9352005661202,-173.180623399313,208.82303591847));
#748=CARTESIAN_POINT('',(-15.8176151355195,-173.180623399313,208.729950083709));
#749=CARTESIAN_POINT('',(-15.8176151355195,-173.180623399313,208.729950083709));
#750=CARTESIAN_POINT('',(-15.8176151355195,-183.980623872753,208.729950083709));
#751=CARTESIAN_POINT('',(-15.8176151355195,-183.980623872753,208.729950083709));
#752=CARTESIAN_POINT('',(-15.9352005661202,-183.980623872753,208.82303591847));
#753=CARTESIAN_POINT('',(-15.9352005661195,-183.980623872753,208.973006936079));
#754=CARTESIAN_POINT('',(-15.8176151355195,-173.180623399313,208.729950083709));
#755=CARTESIAN_POINT('',(-15.0081995552294,-173.180623399313,208.089180861095));
#756=CARTESIAN_POINT('',(-15.0081995552293,-173.180623399313,207.137393934299));
#757=CARTESIAN_POINT('',(-15.0081995552294,-173.180623399314,204.98364757488));
#758=CARTESIAN_POINT('',(-17.4852005661199,-173.180623399313,204.98364757488));
#759=CARTESIAN_POINT('',(-19.9622015770095,-173.180623399314,204.98364757488));
#760=CARTESIAN_POINT('',(-19.9622015770094,-173.180623399313,207.137393934299));
#761=CARTESIAN_POINT('',(-19.962201577009,-173.180623399314,208.08918086109));
#762=CARTESIAN_POINT('',(-19.1527859967294,-173.180623399313,208.729950083702));
#763=CARTESIAN_POINT('',(-19.1527859967294,-173.180623399313,208.729950083702));
#764=CARTESIAN_POINT('',(-19.1527859967294,-183.980623872753,208.729950083702));
#765=CARTESIAN_POINT('',(-19.1527859967294,-183.980623872753,208.729950083702));
#766=CARTESIAN_POINT('',(-19.962201577009,-183.980623872753,208.08918086109));
#767=CARTESIAN_POINT('',(-19.9622015770094,-183.980623872753,207.137393934299));
#768=CARTESIAN_POINT('',(-19.9622015770095,-183.980623872753,204.98364757488));
#769=CARTESIAN_POINT('',(-17.4852005661199,-183.980623872753,204.98364757488));
#770=CARTESIAN_POINT('',(-15.0081995552294,-183.980623872753,204.98364757488));
#771=CARTESIAN_POINT('',(-15.0081995552293,-183.980623872753,207.137393934299));
#772=CARTESIAN_POINT('',(-15.0081995552294,-183.980623872753,208.089180861095));
#773=CARTESIAN_POINT('',(-15.8176151355195,-183.980623872753,208.729950083709));
#774=CARTESIAN_POINT('',(-19.1527859967294,-173.180623399313,208.729950083702));
#775=CARTESIAN_POINT('',(-19.0352005661213,-173.180623399314,208.823035918459));
#776=CARTESIAN_POINT('',(-19.0352005661197,-173.180623399313,208.973006936071));
#777=CARTESIAN_POINT('',(-19.0352005661197,-173.180623399313,208.973006936071));
#778=CARTESIAN_POINT('',(-19.0352005661197,-183.980623872753,208.973006936071));
#779=CARTESIAN_POINT('',(-19.0352005661197,-183.980623872753,208.973006936071));
#780=CARTESIAN_POINT('',(-19.0352005661215,-183.980623872752,208.823035918459));
#781=CARTESIAN_POINT('',(-19.1527859967294,-183.980623872753,208.729950083702));
#782=CARTESIAN_POINT('',(-19.0352005661197,-173.180623399313,208.973006936071));
#783=CARTESIAN_POINT('',(-19.0352005661197,-173.180623399313,209.269308424258));
#784=CARTESIAN_POINT('',(-19.0352005661197,-173.180623399313,209.565609912445));
#785=CARTESIAN_POINT('',(-19.0352005661197,-173.180623399313,209.565609912445));
#786=CARTESIAN_POINT('',(-19.0352005661197,-183.980623872753,209.565609912445));
#787=CARTESIAN_POINT('',(-19.0352005661197,-183.980623872753,209.565609912445));
#788=CARTESIAN_POINT('',(-19.0352005661197,-183.980623872753,209.269308424258));
#789=CARTESIAN_POINT('',(-19.0352005661197,-183.980623872753,208.973006936071));
#790=CARTESIAN_POINT('',(-19.0352005661197,-173.180623399313,209.565609912445));
#791=CARTESIAN_POINT('',(-19.0352005661194,-173.180623399314,209.875609912445));
#792=CARTESIAN_POINT('',(-19.3452005661196,-173.180623399313,209.875609912445));
#793=CARTESIAN_POINT('',(-19.3452005661196,-173.180623399313,209.875609912445));
#794=CARTESIAN_POINT('',(-19.3452005661196,-183.980623872753,209.875609912445));
#795=CARTESIAN_POINT('',(-19.3452005661196,-183.980623872753,209.875609912445));
#796=CARTESIAN_POINT('',(-19.0352005661195,-183.980623872753,209.875609912445));
#797=CARTESIAN_POINT('',(-19.0352005661197,-183.980623872753,209.565609912445));
#798=CARTESIAN_POINT('',(-19.3452005661196,-173.180623399313,209.875609912445));
#799=CARTESIAN_POINT('',(-21.5611047013494,-173.180623399313,209.874659345162));
#800=CARTESIAN_POINT('',(-23.7770088365795,-173.180623399313,209.873708777878));
#801=CARTESIAN_POINT('',(-23.7770088365795,-173.180623399313,209.873708777878));
#802=CARTESIAN_POINT('',(-23.7770088365795,-183.980623872753,209.873708777878));
#803=CARTESIAN_POINT('',(-23.7770088365795,-183.980623872753,209.873708777878));
#804=CARTESIAN_POINT('',(-21.5611047013494,-183.980623872753,209.874659345162));
#805=CARTESIAN_POINT('',(-19.3452005661196,-183.980623872753,209.875609912445));
#806=CARTESIAN_POINT('',(-23.7770088365795,-173.180623399313,209.873708777878));
#807=CARTESIAN_POINT('',(-24.5520088365796,-173.180623399313,209.873708777878));
#808=CARTESIAN_POINT('',(-24.5520088365796,-173.180623399313,209.098708777878));
#809=CARTESIAN_POINT('',(-24.5520088365796,-173.180623399313,209.098708777878));
#810=CARTESIAN_POINT('',(-24.5520088365796,-183.980623872753,209.098708777878));
#811=CARTESIAN_POINT('',(-24.5520088365796,-183.980623872753,209.098708777878));
#812=CARTESIAN_POINT('',(-24.5520088365794,-183.980623872752,209.873708777878));
#813=CARTESIAN_POINT('',(-23.7770088365795,-183.980623872753,209.873708777878));
#814=CARTESIAN_POINT('',(-24.5520088365796,-173.180623399313,209.098708777878));
#815=CARTESIAN_POINT('',(-24.5520088365795,-173.180623399313,206.952116169192));
#816=CARTESIAN_POINT('',(-24.5520088365794,-173.180623399313,204.805523560505));
#817=CARTESIAN_POINT('',(-24.5520088365794,-173.180623399313,204.805523560505));
#818=CARTESIAN_POINT('',(-24.5520088365794,-183.980623872753,204.805523560505));
#819=CARTESIAN_POINT('',(-24.5520088365794,-183.980623872753,204.805523560505));
#820=CARTESIAN_POINT('',(-24.5520088365795,-183.980623872753,206.952116169192));
#821=CARTESIAN_POINT('',(-24.5520088365796,-183.980623872753,209.098708777878));
#822=CARTESIAN_POINT('',(-10.4183922956794,-173.180623399313,204.805523560505));
#823=CARTESIAN_POINT('',(-10.4183922956794,-173.180623399313,206.952116169192));
#824=CARTESIAN_POINT('',(-10.4183922956794,-173.180623399313,209.098708777878));
#825=CARTESIAN_POINT('',(-10.4183922956794,-183.980623872753,209.098708777878));
#826=CARTESIAN_POINT('',(-10.4183922956794,-183.980623872753,206.952116169192));
#827=CARTESIAN_POINT('',(-10.4183922956794,-183.980623872753,204.805523560505));
#828=CARTESIAN_POINT('',(-10.4183922956794,-183.980623872753,204.805523560505));
#829=CARTESIAN_POINT('',(-10.4183922956794,-173.180623399313,204.805523560505));
#830=CARTESIAN_POINT('',(-10.4183922956794,-173.180623399313,204.805523560505));
#831=CARTESIAN_POINT('',(-17.4852005661295,-173.180623399313,204.805523560505));
#832=CARTESIAN_POINT('',(-24.5520088365794,-173.180623399313,204.805523560505));
#833=CARTESIAN_POINT('',(-24.5520088365794,-183.980623872753,204.805523560505));
#834=CARTESIAN_POINT('',(-17.4852005661295,-183.980623872753,204.805523560505));
#835=CARTESIAN_POINT('',(-10.4183922956794,-183.980623872753,204.805523560505));
#836=CARTESIAN_POINT('',(-24.5520088365794,-183.980623872753,204.011632852422));
#837=CARTESIAN_POINT('',(-24.5520088365794,-183.980623872753,204.805523560505));
#838=CARTESIAN_POINT('',(-24.5520088365794,-173.180623399313,204.805523560505));
#839=CARTESIAN_POINT('',(-24.5520088365794,-173.180610615733,204.011632852422));
#840=CARTESIAN_POINT('',(-24.5520088365794,-173.180610615733,204.011632852422));
#841=CARTESIAN_POINT('',(-24.5520088365794,-183.980623872753,204.011632852422));
#842=CARTESIAN_POINT('',(-10.4183922956794,-173.180610615733,204.011632852422));
#843=CARTESIAN_POINT('',(-24.5520088365794,-173.180610615733,204.011632852422));
#844=CARTESIAN_POINT('',(-10.4183922956794,-173.180623399313,204.805523560505));
#845=CARTESIAN_POINT('',(-10.4183922956794,-173.180610615733,204.011632852422));
#846=CARTESIAN_POINT('',(-10.4183922956794,-183.980623872753,204.805523560505));
#847=CARTESIAN_POINT('',(-10.4183922956794,-183.980623872753,204.011632852422));
#848=CARTESIAN_POINT('',(-10.4183922956794,-183.980623872753,204.011632852422));
#849=CARTESIAN_POINT('',(-10.4183922956794,-173.180610615733,204.011632852422));
#850=CARTESIAN_POINT('',(-24.5520088365794,-183.980623872753,204.011632852422));
#851=CARTESIAN_POINT('',(-10.4183922956794,-183.980623872753,204.011632852422));
#852=CARTESIAN_POINT('',(-0.445552014439379,-173.180597832153,202.533081329574));
#853=CARTESIAN_POINT('',(-34.5248491178194,-173.180597832153,202.533081329574));
#854=CARTESIAN_POINT('',(-37.0666077552495,-173.180597832153,198.011632852422));
#855=CARTESIAN_POINT('',(-37.7856173463896,-173.180597832153,198.011632852422));
#856=CARTESIAN_POINT('',(-37.7856173463896,-173.180597832153,198.011632852422));
#857=CARTESIAN_POINT('',(-37.7856173463896,-173.180597832153,204.011632852422));
#858=CARTESIAN_POINT('',(2.81521621413061,-173.180597832153,204.011632852422));
#859=CARTESIAN_POINT('',(2.81521621413061,-173.180597832153,198.011632852422));
#860=CARTESIAN_POINT('',(2.81521621413061,-173.180597832153,198.011632852422));
#861=CARTESIAN_POINT('',(2.09620662299051,-173.180597832153,198.011632852422));
#862=CARTESIAN_POINT('',(2.81521621413061,-173.180597832153,204.011632852422));
#863=CARTESIAN_POINT('',(2.81520777176059,-183.980623872753,204.011632852422));
#864=CARTESIAN_POINT('',(2.81520777176059,-183.980623872753,204.011632852422));
#865=CARTESIAN_POINT('',(2.81520777176059,-183.980623872753,198.011632852422));
#866=CARTESIAN_POINT('',(2.81520777176059,-183.980623872753,198.011632852422));
#867=CARTESIAN_POINT('',(2.81521621413061,-173.180597832153,198.011632852422));
#868=CARTESIAN_POINT('',(-34.5248491178194,-183.980623872753,202.533081329574));
#869=CARTESIAN_POINT('',(-0.445552014439379,-183.980623872753,202.533081329574));
#870=CARTESIAN_POINT('',(2.09620662299051,-183.980623872753,198.011632852422));
#871=CARTESIAN_POINT('',(2.81520777176059,-183.980623872753,198.011632852422));
#872=CARTESIAN_POINT('',(2.81520777176059,-183.980623872753,204.011632852422));
#873=CARTESIAN_POINT('',(-10.4183922956794,-183.980623872753,204.011632852422));
#874=CARTESIAN_POINT('',(-24.5520088365794,-183.980623872753,204.011632852422));
#875=CARTESIAN_POINT('',(-37.7856089040196,-183.980623872753,204.011632852422));
#876=CARTESIAN_POINT('',(-37.7856089040196,-183.980623872753,204.011632852422));
#877=CARTESIAN_POINT('',(-37.7856089040196,-183.980623872753,198.011632852422));
#878=CARTESIAN_POINT('',(-37.7856089040196,-183.980623872753,198.011632852422));
#879=CARTESIAN_POINT('',(-37.0666077552495,-183.980623872753,198.011632852422));
#880=CARTESIAN_POINT('',(-37.7856089040196,-183.980623872753,204.011632852422));
#881=CARTESIAN_POINT('',(-37.7856173463896,-173.180597832153,204.011632852422));
#882=CARTESIAN_POINT('',(-37.7856173463896,-173.180597832153,198.011632852422));
#883=CARTESIAN_POINT('',(-37.7856089040196,-183.980623872753,198.011632852422));
#884=CARTESIAN_POINT('',(-37.0666077552495,-173.180597832153,198.011632852422));
#885=CARTESIAN_POINT('',(-37.0666077552495,-183.980623872753,198.011632852422));
#886=CARTESIAN_POINT('',(2.09620662299051,-183.980623872753,198.011632852422));
#887=CARTESIAN_POINT('',(2.09620662299051,-173.180597832153,198.011632852422));
#888=CARTESIAN_POINT('',(2.09620662299051,-173.180597832153,198.011632852422));
#889=CARTESIAN_POINT('',(1.5158858070505,-173.180597832153,200.923928706984));
#890=CARTESIAN_POINT('',(1.5158858070505,-183.980623872753,200.923928706984));
#891=CARTESIAN_POINT('',(2.09620662299051,-183.980623872753,198.011632852422));
#892=CARTESIAN_POINT('',(-0.445552014439379,-183.980623872753,202.533081329574));
#893=CARTESIAN_POINT('',(-0.445552014439379,-173.180597832153,202.533081329574));
#894=CARTESIAN_POINT('',(1.5158858070505,-173.180597832153,200.923928706984));
#895=CARTESIAN_POINT('',(1.19523680380204,-173.180597832154,202.533081329572));
#896=CARTESIAN_POINT('',(-0.445552014439379,-173.180597832153,202.533081329574));
#897=CARTESIAN_POINT('',(1.5158858070505,-173.180597832153,200.923928706984));
#898=CARTESIAN_POINT('',(1.5158858070505,-183.980623872753,200.923928706984));
#899=CARTESIAN_POINT('',(-0.445552014439379,-183.980623872753,202.533081329574));
#900=CARTESIAN_POINT('',(1.19523680380284,-183.980623872753,202.533081329573));
#901=CARTESIAN_POINT('',(1.5158858070505,-183.980623872753,200.923928706984));
#902=CARTESIAN_POINT('',(-34.5248491178194,-183.980623872753,202.533081329574));
#903=CARTESIAN_POINT('',(-34.5248491178194,-173.180597832153,202.533081329574));
#904=CARTESIAN_POINT('',(-36.4862869393095,-183.980623872753,200.923928706984));
#905=CARTESIAN_POINT('',(-36.1656379360608,-183.980623872753,202.533081329572));
#906=CARTESIAN_POINT('',(-34.5248491178194,-183.980623872753,202.533081329574));
#907=CARTESIAN_POINT('',(-36.4862869393095,-183.980623872753,200.923928706984));
#908=CARTESIAN_POINT('',(-36.4862869393095,-173.180597832153,200.923928706984));
#909=CARTESIAN_POINT('',(-34.5248491178194,-173.180597832153,202.533081329574));
#910=CARTESIAN_POINT('',(-36.1656379360617,-173.180597832153,202.533081329573));
#911=CARTESIAN_POINT('',(-36.4862869393095,-173.180597832153,200.923928706984));
#912=CARTESIAN_POINT('',(-37.0666077552495,-183.980623872753,198.011632852422));
#913=CARTESIAN_POINT('',(-36.4862869393095,-183.980623872753,200.923928706984));
#914=CARTESIAN_POINT('',(-36.4862869393095,-173.180597832153,200.923928706984));
#915=CARTESIAN_POINT('',(-37.0666077552495,-173.180597832153,198.011632852422));
#916=CARTESIAN_POINT('',(-10.4183922956794,-173.180610615733,204.011632852422));
#917=CARTESIAN_POINT('',(2.81521621413061,-173.180597832153,204.011632852422));
#918=CARTESIAN_POINT('',(-37.7856173463896,-173.180597832153,204.011632852422));
#919=CARTESIAN_POINT('',(-24.5520088365794,-173.180610615733,204.011632852422));
#920=CARTESIAN_POINT('',(0.,0.,0.));
ENDSEC;
END-ISO-10303-21;
